<svg xmlns="http://www.w3.org/2000/svg" viewBox="0 0 75.07 75.07"><defs><style>.cls-1{fill:none;}.cls-2{fill:#242424;opacity:0.15;}</style></defs><g id="Layer_2" data-name="Layer 2"><g id="Layer_1-2" data-name="Layer 1"><rect class="cls-1" width="75.07" height="75.07"/><rect class="cls-2" x="64.86" y="8.5" width="1.71" height="1.71"/><rect class="cls-2" x="64.86" y="27.29" width="1.71" height="1.71"/><rect class="cls-2" x="64.86" y="46.07" width="1.71" height="1.71"/><rect class="cls-2" x="64.86" y="64.86" width="1.71" height="1.71"/><rect class="cls-2" x="46.07" y="8.5" width="1.71" height="1.71"/><rect class="cls-2" x="46.07" y="27.29" width="1.71" height="1.71"/><rect class="cls-2" x="46.07" y="46.07" width="1.71" height="1.71"/><rect class="cls-2" x="46.07" y="64.86" width="1.71" height="1.71"/><rect class="cls-2" x="27.29" y="8.5" width="1.71" height="1.71"/><rect class="cls-2" x="27.29" y="27.29" width="1.71" height="1.71"/><rect class="cls-2" x="27.29" y="46.07" width="1.71" height="1.71"/><rect class="cls-2" x="27.29" y="64.86" width="1.71" height="1.71"/><rect class="cls-2" x="8.5" y="8.5" width="1.71" height="1.71"/><rect class="cls-2" x="8.5" y="27.29" width="1.71" height="1.71"/><rect class="cls-2" x="8.5" y="46.07" width="1.71" height="1.71"/><rect class="cls-2" x="8.5" y="64.86" width="1.71" height="1.71"/></g></g></svg>