<?xml version="1.0" encoding="UTF-8"?>
<svg version="1.1" viewBox="0 0 1600 1480" width="1280" height="1280" xmlns="http://www.w3.org/2000/svg">
<path transform="translate(0)" d="m0 0h1600v1480h-1600v-1480z" fill="#FDFDFD"/>
<path transform="translate(799 129)" d="m0 0c23.2-0.662 46 6.73 63 22.8 17.5 17.3 26.9 38.7 27.4 63.3-0.58 24-9.5 43-26.2 60.1-0.81 0.828-1.62 1.66-2.45 2.51-7.19 7.04-15 12.6-23.7 17.7-2.86 1.83-4.77 3.14-6.85 5.82-0.365 2.82-0.491 5.24-0.426 8.05 0.00329 0.809 0.00658 1.62 0.00996 2.45 0.0157 2.6 0.0595 5.21 0.103 7.81 0.0115 1.65 0.0213 3.29 0.0293 4.94 0.081 11 0.434 22 0.798 33 0.0472 1.44 0.0942 2.88 0.141 4.32 0.114 3.48 0.229 6.97 0.344 10.5 0.881 0.00174 1.76 0.00347 2.67 0.00526 52.2 0.103 104 0.211 156 0.326 6.26 0.0138 12.5 0.0275 18.8 0.0412 1.25 0.00273 2.49 0.00546 3.78 0.00827 20.2 0.0441 40.4 0.0847 60.6 0.124 20.7 0.0404 41.4 0.0846 62.1 0.132 12.8 0.0293 25.6 0.0557 38.4 0.0783 8.76 0.0158 17.5 0.0352 26.3 0.0575 5.06 0.0128 10.1 0.0239 15.2 0.0308 4.63 0.0063 9.26 0.0171 13.9 0.0316 1.68 0.00445 3.36 0.0072 5.04 0.00813 2.27 0.0015 4.55 0.00906 6.82 0.0182 1.27 0.00266 2.53 0.00532 3.83 0.00805 2.63 0.108 4.67 0.447 7.17 1.13l3.56-0.0625c5.29-0.0586 10.3 0.984 15.4 2.06 1.01 0.195 2.02 0.389 3.07 0.59 21.2 4.4 41.1 14.7 56.9 29.4 1.46 1.23 2.91 2.46 4.38 3.69 3.13 2.77 5.9 5.71 8.59 8.91 1.57 1.86 3.17 3.68 4.79 5.5 7.24 8.17 13.5 16.6 19.2 25.9 0.361 0.567 0.722 1.13 1.09 1.72 9.09 14.4 15.4 30.6 16.2 47.7 0.0466 0.987 0.0931 1.97 0.141 2.99 0.0844 1.99 0.16 3.99 0.226 5.98 0.0466 1.38 0.0466 1.38 0.0942 2.8 0.0239 0.831 0.0479 1.66 0.0725 2.52 0.0982 2.25 0.0982 2.25 0.678 4.18 0.517 2.22 0.609 4.13 0.593 6.4-0.0033 0.835-0.00661 1.67-0.01 2.53-0.0083 0.895-0.0166 1.79-0.0251 2.71-0.00379 0.93-0.00757 1.86-0.0115 2.82-0.0163 3.97-0.0443 7.94-0.0715 11.9-0.0182 2.9-0.0302 5.81-0.042 8.71-0.0083 0.887-0.0166 1.77-0.0251 2.69-0.0033 0.847-0.00661 1.69-0.01 2.57-0.00524 0.734-0.0105 1.47-0.0159 2.22 0.0838 2.76 0.0838 2.76 0.613 6.27 0.495 3.9 0.627 7.72 0.628 11.7 0.00156 0.698 0.00312 1.4 0.00473 2.12 0.00397 2.33 8.38e-4 4.65-0.00232 6.98 0.00133 1.69 0.00309 3.38 0.00523 5.07 0.00452 4.64 0.00267 9.28-4.16e-4 13.9-0.00189 3.98-2.26e-4 7.97 0.00145 12 0.00501 12 2.71e-4 24-0.00689 36-0.00402 6.87-0.00586 13.7-0.00747 20.6-0.0186 70.5-0.206 141-0.527 211-0.0262 5.75-0.0512 11.5-0.0759 17.2-0.0518 12-0.109 24.1-0.171 36.1-0.0204 3.97-0.0392 7.94-0.0563 11.9-0.0872 19.9-0.282 39.8-0.752 59.6-0.0194 0.848-0.0388 1.7-0.0587 2.57-0.303 13-0.886 25.9-2.24 38.8-0.2 1.96-0.352 3.93-0.493 5.89-2.25 22.5-16 44.9-30.7 61.4-0.798 0.895-1.6 1.79-2.42 2.71-1.5 1.67-3.02 3.34-4.54 5-1.39 1.56-2.72 3.17-4 4.82-3.73 4.51-8.44 7.89-13 11.5-0.826 0.655-0.826 0.655-1.67 1.32-20.6 16.2-45 27.6-71.3 29.5-2.2 0.161-2.2 0.161-4.99 1.21-1.53 0.0697-3.07 0.0845-4.6 0.0625-0.884-0.00773-1.77-0.0155-2.68-0.0234-0.92-0.0129-1.84-0.0258-2.79-0.0391-1.82-0.0255-3.65-0.0465-5.47-0.0625-0.808-0.0116-1.62-0.0232-2.45-0.0352-2.09-0.0347-2.09-0.0347-4.02 1.1-2.88 0.0982-5.74 0.135-8.62 0.127-0.903 0.00156-1.81 0.00312-2.74 0.00473-3.04 0.00401-6.09 8.21e-4 -9.13-0.00232-2.17 0.00135-4.35 0.00313-6.52 0.00531-5.92 0.00457-11.8 0.00279-17.8-3.79e-4 -6.18-0.00252-12.4-1.86e-4 -18.5 0.00139-10.4 0.00182-20.8-5.84e-4 -31.2-0.00534-12-0.00544-24-0.00368-36.1 0.00183-10.3 0.00453-20.6 0.00518-30.9 0.00256-6.16-0.00156-12.3-0.00176-18.5 0.00154-5.79 0.00288-11.6 9.01e-4 -17.4-0.00489-2.13-0.00133-4.26-9.34e-4 -6.39 0.00126-2.9 0.00271-5.8-6.72e-4 -8.69-0.00568-1.28 0.00335-1.28 0.00335-2.58 0.00676-5.8-0.0196-5.8-0.0196-8.03-1.13-1.87-0.13-3.75-0.229-5.62-0.312-5.66-0.434-9.64-1.62-14.4-4.69-0.887-0.536-1.77-1.07-2.69-1.62-6.27-6.44-8.69-14.8-8.6-23.6 1-9.84 6.04-18.3 13.3-24.8 4.19-3.11 7.97-3.53 13-3.68 1.18-0.0497 1.18-0.0497 2.39-0.1 9.26-0.352 18.5-0.343 27.8-0.316 1.96 0.00192 3.91 0.00339 5.87 0.00443 4.17 0.00313 8.34 0.00935 12.5 0.0181 6.59 0.0136 13.2 0.0194 19.8 0.0241 14 0.011 28 0.0306 41.9 0.051 15.1 0.0221 30.3 0.0426 45.4 0.0534 6.56 0.00498 13.1 0.0148 19.7 0.0284 4.07 0.00745 8.13 0.0108 12.2 0.013 1.89 0.00187 3.77 0.00548 5.66 0.0109 2.57 0.00721 5.14 0.00825 7.72 0.00778 0.747 0.00359 1.49 0.00719 2.27 0.0109 3.73-0.00741 7.13-0.319 10.8-1.12 1.84 0.0227 3.68 0.05 5.52 0.116 10.3 0.328 20.4-0.676 30.5-1.87 1.07-0.118 1.07-0.118 2.16-0.238 10.6-1.18 20.2-2.87 28.8-9.39 3.05-2.25 6.1-4.37 9.31-6.38 17.1-11.6 28.7-28.7 33.2-48.9 4.94-27.8 3.67-56.9 3.62-85-0.00668-5.77-0.00161-11.5 0.00188-17.3 5e-3 -11.3-5.45e-4 -22.5-0.00985-33.8-0.0105-13.1-0.0103-26.3-0.00983-39.4 7.05e-4 -24.2-0.00947-48.3-0.0245-72.5-0.0136-22-0.0199-44-0.0192-66 4.04e-5 -1.41 8.08e-5 -2.83 1.21e-4 -4.24 2.04e-5 -0.699 4.07e-5 -1.4 6.17e-5 -2.12 1.01e-4 -3.52 1.91e-4 -7.04 2.7e-4 -10.6 2.51e-5 -1.04 2.51e-5 -1.04 5.06e-5 -2.1 4.45e-4 -22.4-0.00668-44.8-0.0144-67.3-3e-3 -9.13-0.00408-18.3-0.00453-27.4-6.86e-4 -11.1-0.0052-22.3-0.0143-33.4-0.00458-5.67-0.00768-11.3-0.00641-17 0.0565-27.1 0.0565-27.1-0.518-54.1-0.0431-1.4-0.0431-1.4-0.087-2.83-0.983-22.5-12.2-41.5-27.5-57.4-0.737-0.763-1.47-1.53-2.23-2.31-13.6-13.1-30.6-19.9-49.2-21.5-1.75-0.147-3.5-0.305-5.25-0.472-10.7-0.916-21.4-0.861-32.2-0.82-3.47 0.0129-6.94 0.0193-10.4 0.0241-7.36 0.0113-14.7 0.0306-22.1 0.051-8.55 0.0237-17.1 0.044-25.6 0.0559-3.41 0.00645-6.81 0.019-10.2 0.0317-2.1 0.00363-4.19 0.00699-6.29 0.01-0.937 0.00517-1.87 0.0103-2.84 0.0157-0.884 7.05e-5 -1.77 1.41e-4 -2.68 2.14e-4 -0.755 0.00222-1.51 0.00444-2.29 0.00673-2.35-0.104-4.62-0.335-6.96-0.619-4.7-0.544-9.34-0.641-14.1-0.628-1.34-0.00234-1.34-0.00234-2.7-0.00473-2.97-0.00396-5.94-8.38e-4 -8.91 0.00232-2.14-0.00136-4.28-0.00314-6.42-0.00531-5.81-0.00456-11.6-0.00279-17.4 3.79e-4 -6.13 0.00255-12.3 1.79e-4 -18.4-0.00139-10.3-0.00182-20.7 5.76e-4 -31 0.00534-11.8 0.00539-23.6 0.00372-35.5-0.00183-10.2-0.0046-20.5-0.00515-30.7-0.00256-6.07 0.00153-12.1 0.00185-18.2-0.00154-26.1-0.0126-52.2 0.14-78.3 0.776-17.6 0.428-35.2 0.525-52.9 0.495-0.898-0.00146-1.8-0.00293-2.72-0.00443-0.915-0.00158-1.83-0.00316-2.77-0.00478-0.939-0.00142-1.88-0.00283-2.85-0.0043-10.3-0.0157-20.5-0.0398-30.8-0.073-10.9-0.035-21.8-0.0523-32.7-0.0536-12.1-0.00149-24.2-0.0269-36.3-0.0776-6.59-0.0268-13.2-0.0436-19.8-0.0361-6.23 0.00654-12.5-0.0155-18.7-0.0589-2.3-0.0111-4.6-0.012-6.91-0.00203-3.17 0.0121-6.33-0.0128-9.5-0.0466-0.916 0.0122-1.83 0.0244-2.78 0.037-8-0.155-13-3.6-18.8-8.86-6.09-7.18-10.3-14.3-9.73-23.9 2.25-10.9 7.18-18.3 16-25 4.71-2.35 11.1-1.42 16.3-1.56 0.741-0.0212 1.48-0.0424 2.25-0.0642 21-0.587 42-0.447 63-0.373 6.89 0.0239 13.8 0.0441 20.7 0.0559 2.7 0.00633 5.39 0.0188 8.09 0.0317 10.9 0.0322 21.8-0.356 32.7-1.09-0.0701-0.771-0.14-1.54-0.213-2.33-0.712-8.39-0.935-16.7-0.963-25.1-0.0158-2.03-0.0345-4.05-0.0532-6.08-0.0452-4.93-0.0835-9.87-0.0969-14.8-0.00812-2.79-0.0266-5.59-0.0569-8.38-0.0281-2.62-0.0411-5.23-0.0371-7.85-0.0165-1.18-0.033-2.36-0.05-3.57-0.00587-1.04-0.0117-2.07-0.0178-3.14-1.09-5.74-6.79-8.41-11.3-11.5-4.68-3.27-8.91-6.55-12.8-10.7-1.47-1.62-1.47-1.62-3.87-3.38-14.4-11.9-22.5-29.4-26.2-47.4-1.56-18.4 1.34-34.3 9.69-50.7 0.536-1.07 1.07-2.14 1.62-3.25 11.7-21.7 32.1-34.7 55.1-41.9 5.5-1.49 10.4-1.82 16.1-2.05z" fill="#6A7179"/>
<path transform="translate(397 372)" d="m0 0c0.856-0.00426 1.71-0.00853 2.59-0.0129 1.4 6.8e-4 1.4 6.8e-4 2.84 0.00137 1.48-0.00504 1.48-0.00504 3-0.0102 3.28-0.00952 6.56-0.0115 9.84-0.0125 2.28-0.00321 4.56-0.00658 6.84-0.0101 4.79-6e-3 9.58-0.00784 14.4-0.00725 6.12 1.01e-4 12.2-0.0135 18.4-0.0308 4.72-0.0112 9.43-0.0131 14.1-0.0126 2.26-0.00118 4.51-0.00558 6.77-0.0133 3.17-0.00986 6.33-0.0069 9.5-8.95e-4 0.922-0.00562 1.84-0.0112 2.8-0.017 15.9 0.0759 15.9 0.0759 21.4 5.26 6.66 7.53 11.4 14 11.6 24.2 0.0374 1.27 0.0748 2.54 0.113 3.86-0.86 7.99-5.06 13.3-10.6 18.8-0.527 0.567-1.05 1.13-1.6 1.72-5.45 5.5-11.5 6.45-19.1 6.64-1.76 0.00271-3.52-0.00538-5.28-0.0226-0.969-0.00131-1.94-0.00263-2.94-0.00398-3.17-0.00645-6.35-0.0269-9.52-0.047-2.22-0.00628-4.43-0.0115-6.65-0.0158-5.82-0.0133-11.6-0.0377-17.5-0.0654-9.33-0.0432-18.7-0.0729-28-0.096-3.25-0.0102-6.51-0.0273-9.76-0.045-1.99-0.00683-3.99-0.0134-5.98-0.0198-0.903-0.00674-1.81-0.0135-2.74-0.0204-4.11-0.00747-7.84 0.152-11.9 1.1-2.35 0.0431-4.71 0.0403-7.06 0-3.87-0.0662-7.22-0.0669-10.9 1-1.95 0.155-1.95 0.155-3.94 0.312-15.6 1.67-28.1 9.1-40.1 18.7-0.745 0.589-1.49 1.18-2.26 1.79-17.3 14.3-27.7 36.6-31.7 58.2-0.189 0.906-0.379 1.81-0.574 2.75-0.58 4.43-0.491 8.79-0.426 13.3 0.0257 1.75 0.0467 3.5 0.0625 5.25 0.0116 0.768 0.0232 1.54 0.0352 2.33-0.0977 2.42-0.0977 2.42-0.596 5.12-0.544 3.58-0.627 6.97-0.628 10.6-0.00145 0.716-0.00291 1.43-0.0044 2.17-0.00365 2.4-1.78e-4 4.8 0.00326 7.2-0.00115 1.74-0.00274 3.48-0.00473 5.21-0.00418 4.78-0.00211 9.56 9.86e-4 14.3 0.00226 5.15-0.00123 10.3-0.00398 15.5-0.00445 10.1-0.00348 20.2-5.87e-4 30.3 0.00226 8.23 0.00256 16.5 0.00148 24.7-2.3e-4 1.76-2.3e-4 1.76-4.64e-4 3.55-3.2e-4 2.38-6.44e-4 4.76-9.73e-4 7.14-0.00285 22.3 4.3e-4 44.7 0.0058 67 0.00445 19.1 0.00371 38.2-9.19e-4 57.3-0.00537 22.2-0.00744 44.5-0.00439 66.7 3.19e-4 2.38 6.33e-4 4.76 9.43e-4 7.14 1.54e-4 1.17 3.09e-4 2.34 4.68e-4 3.55 8.58e-4 8.19-5.82e-4 16.4-0.00295 24.6-0.00283 10-0.00199 20 0.00328 30.1 0.0026 5.1 0.00372 10.2 3.51e-4 15.3-0.0113 18.8 0.0496 37.6 0.578 56.4 0.0194 0.729 0.0388 1.46 0.0588 2.21 0.0556 2.03 0.119 4.05 0.184 6.07 0.0358 1.14 0.0717 2.27 0.109 3.44 0.0947 2.87 0.0947 2.87 1.2 5.78-0.0165 1.95-0.0334 3.89-0.0547 5.84 0.67 26.5 19.6 53.7 37.8 71.2 9.82 9.1 21.1 15.4 33.2 20.9 1.39 0.632 1.39 0.632 2.81 1.28 11.3 4.8 23.2 6.43 35.3 7.85 2.11 0.252 4.22 0.506 6.33 0.765 1.89 0.231 3.77 0.454 5.66 0.677 2.88 0.433 2.88 0.433 4.88 1.43 2.33 0.278 4.66 0.445 7 0.621 11.2 1.42 22.2 5.13 33 8.38 0.775 0.232 1.55 0.464 2.35 0.703 22.7 6.95 40.6 20.1 54.7 39.3 1.03 1.34 2.06 2.69 3.1 4.03 9.24 12.1 17.2 24.8 24.9 38 0.769 1.31 0.769 1.31 1.55 2.65 7.85 13.4 15.2 27.1 22.6 40.8 1.67 3.11 3.34 6.22 5.01 9.33 1.39 2.58 2.78 5.17 4.17 7.75 0.671 1.25 1.34 2.49 2.01 3.74 0.935 1.73 1.87 3.47 2.8 5.2 0.534 0.992 1.07 1.98 1.62 3.01 1.27 2.5 1.27 2.5 2.27 5.5 2.2 0.878 2.2 0.878 5 1 2.05-1.26 4.04-2.61 6-4 0.877-0.605 1.75-1.21 2.66-1.83 0.938-0.654 1.88-1.31 2.84-1.98 5.11-3.55 10.3-7.07 15.4-10.6 8.4-5.71 16.8-11.5 25-17.3 5.24-3.72 10.5-7.37 15.8-11 5.37-3.68 10.7-7.41 16-11.2 6.62-4.64 13.3-9.25 19.9-13.8 1.18-0.806 1.18-0.806 2.38-1.63 2.99-2.04 5.97-4.07 8.96-6.11 8.47-5.77 16.8-11.6 25.1-17.7 5.1-3.71 10.2-7.35 15.4-11 9.37-6.58 18.5-13.5 27.6-20.4 6.75-5.12 13.6-9.93 20.8-14.5 0.614-0.399 1.23-0.797 1.86-1.21 26.5-17.2 26.5-17.2 36.4-16.4 9.4 2.11 16.1 6.93 21.7 14.6 0.763 0.887 1.53 1.77 2.31 2.69 3.25 6.38 4.6 14.3 2.69 21.3-4.89 11.6-17.9 18.1-28 24.7-3.25 2.14-6.45 4.34-9.65 6.55-0.654 0.45-1.31 0.901-1.98 1.36-13.3 9.17-26.5 18.5-39.6 27.8-15.6 11-31.4 21.9-47.2 32.7-10.8 7.38-21.6 14.9-32.3 22.4-9.64 6.76-19.4 13.4-29.1 20-4.87 3.32-9.73 6.65-14.6 10-8.6 5.97-17.2 11.9-25.9 17.7-2.28 1.55-4.55 3.11-6.82 4.67-15.1 10.4-27.9 17.6-46.8 16.1-4.26-0.873-8.04-2.23-12-4-0.893-0.374-1.79-0.748-2.71-1.13-25.2-11.4-38.4-50.1-50.9-73.5-4.36-8.2-8.84-16.3-13.4-24.4-0.867-1.54-0.867-1.54-1.75-3.1-1.95-3.45-3.91-6.89-5.87-10.3-0.61-1.08-1.22-2.16-1.85-3.27-3.59-6.26-7.44-12.1-11.8-17.8-1.69-2.45-1.69-2.45-2.73-5.2-0.316-0.742-0.633-1.48-0.958-2.25-0.99-0.33-1.98-0.66-3-1-1.51-1.6-1.51-1.6-3.12-3.62-17.3-20.2-42.4-22.8-67.2-25.4-38.8-4.09-38.8-4.09-54.4-11.2-0.875-0.39-1.75-0.78-2.65-1.18-15.6-7.04-29.9-15.3-43-26.4-3.26-2.71-6.64-5.25-10-7.77-0.783-0.698-0.783-0.698-1.58-1.41v-2c-0.561-0.236-1.12-0.472-1.7-0.715-7.95-4.44-14-13-19.3-20.3-1.12-1.45-1.12-1.45-2.27-2.94-16.2-21.4-29.4-49.8-30.6-77-0.144-2.14-0.585-4.02-1.14-6.09-2.56-16.6-2.15-33.6-2.13-50.4-4.55e-4 -2.07-0.00166-4.13-0.00295-6.2-0.00525-8.54-4.07e-4 -17.1 0.00679-25.6 0.0042-5.03 0.00651-10.1 0.00867-15.1 0.0134-28.5 0.0597-57 0.113-85.6 0.00664-3.58 0.0132-7.16 0.0197-10.7 0.0759-41.6 0.166-83.3 0.279-125 0.00717-2.65 0.0143-5.31 0.0215-7.96 0.00477-1.77 0.00955-3.54 0.0143-5.31 0.0358-13.3 0.0666-26.5 0.0947-39.8 0.0326-15.3 0.0725-30.7 0.121-46 0.0252-7.96 0.0473-15.9 0.0608-23.9 0.0113-6.7 0.0293-13.4 0.0558-20.1 0.0132-3.39 0.0224-6.77 0.025-10.2 0.0479-52.3 11.4-93 48.2-132 5.6-5.44 11.9-10.1 18.1-14.8 0.846-0.641 1.69-1.28 2.56-1.94 6.83-4.97 14.2-9.08 21.6-13.1 1.52-0.816 3.03-1.65 4.53-2.49 6.16-3.16 12.7-4.73 19.4-6.3 0.922-0.219 1.84-0.439 2.8-0.665 5.48-1.21 10.5-1.72 16.1-1.5 2.07 0.124 2.07 0.124 4-1.02 1.41-0.0718 2.83-0.0839 4.25-0.0625 0.837 0.00773 1.67 0.0155 2.54 0.0234 1.77 0.026 3.53 0.052 5.3 0.0781 0.839 0.00773 1.68 0.0155 2.54 0.0234 0.768 0.0116 1.54 0.0232 2.33 0.0352 3.21-0.153 5.97-1.22 9.26-1.23z" fill="#6B727A"/>
<path transform="translate(332,1086)" d="m0 0c0.64 0.51 0.64 0.51 1.29 1.03 25.3 19.6 50.7 26.1 81.9 29.6 2.79 0.401 2.79 0.401 4.79 1.4 2.33 0.278 4.66 0.445 7 0.621 11.2 1.42 22.2 5.13 33 8.38 0.775 0.232 1.55 0.464 2.35 0.703 22.7 6.95 40.6 20.1 54.7 39.3 1.03 1.34 2.06 2.69 3.1 4.03 9.24 12.1 17.2 24.8 24.9 38 0.513 0.874 1.03 1.75 1.55 2.65 7.85 13.4 15.2 27.1 22.6 40.8 1.67 3.11 3.34 6.22 5.01 9.33 1.39 2.58 2.78 5.17 4.17 7.75 0.671 1.25 1.34 2.49 2.01 3.74 0.935 1.73 1.87 3.47 2.8 5.2 0.534 0.992 1.07 1.98 1.62 3.01 1.27 2.5 1.27 2.5 2.27 5.5 2.2 0.878 2.2 0.878 5 1 2.05-1.26 4.04-2.61 6-4 0.877-0.605 1.75-1.21 2.66-1.83 0.938-0.654 1.88-1.31 2.84-1.98 5.11-3.55 10.3-7.07 15.4-10.6 8.4-5.71 16.8-11.5 25-17.3 5.24-3.72 10.5-7.37 15.8-11 5.37-3.68 10.7-7.41 16-11.2 6.62-4.64 13.3-9.25 19.9-13.8 0.787-0.537 1.57-1.07 2.38-1.63 2.99-2.04 5.97-4.07 8.96-6.11 8.47-5.77 16.8-11.6 25.1-17.7 5.1-3.71 10.2-7.35 15.4-11 9.37-6.58 18.5-13.5 27.6-20.4 6.75-5.12 13.6-9.93 20.8-14.5 0.614-0.399 1.23-0.797 1.86-1.21 26.5-17.2 26.5-17.2 36.4-16.4 9.4 2.11 16.1 6.93 21.7 14.6 0.763 0.887 1.53 1.77 2.31 2.69 3.25 6.38 4.6 14.3 2.69 21.3-4.89 11.6-17.9 18.1-28 24.7-3.25 2.14-6.45 4.34-9.65 6.55-0.654 0.45-1.31 0.901-1.98 1.36-13.3 9.17-26.5 18.5-39.6 27.8-15.6 11-31.4 21.9-47.2 32.7-10.8 7.38-21.6 14.9-32.3 22.4-9.64 6.76-19.4 13.4-29.1 20-4.87 3.32-9.73 6.65-14.6 10-8.6 5.97-17.2 11.9-25.9 17.7-2.28 1.55-4.55 3.11-6.82 4.67-15.1 10.4-27.9 17.6-46.8 16.1-4.26-0.873-8.04-2.23-12-4-0.893-0.374-1.79-0.748-2.71-1.13-25.2-11.4-38.4-50.1-50.9-73.5-4.36-8.2-8.84-16.3-13.4-24.4-0.578-1.02-1.16-2.05-1.75-3.1-1.95-3.45-3.91-6.89-5.87-10.3-0.61-1.08-1.22-2.16-1.85-3.27-3.59-6.26-7.44-12.1-11.8-17.8-1.69-2.45-1.69-2.45-2.73-5.2-0.316-0.742-0.633-1.48-0.958-2.25-0.99-0.33-1.98-0.66-3-1-1.51-1.6-1.51-1.6-3.12-3.62-17.3-20.2-42.4-22.8-67.2-25.4-38.8-4.09-38.8-4.09-54.4-11.2-0.875-0.39-1.75-0.78-2.65-1.18-15.6-7.06-29.9-15.4-43.1-26.4-3.42-2.84-6.97-5.5-10.6-8.12 0.84-1.96 0.84-1.96 2-4 2.56-0.625 2.56-0.625 5-1 0.33-0.66 0.66-1.32 1-2-1.98 0.66-3.96 1.32-6 2-0.33-0.66-0.66-1.32-1-2 0.33-0.66 0.66-1.32 1-2 0.784-0.144 1.57-0.289 2.38-0.438 2.88-0.616 3.79-1.34 5.62-3.56 0.981 3.05 0.981 4.95 0 8h2c1.38-1.63 2.72-3.29 4-5-1.98 0.495-1.98 0.495-4 1 0.33-0.99 0.66-1.98 1-3 0.66-0.33 1.32-0.66 2-1 0.605-2.5 0.958-5.01 1.34-7.55 0.738-2.73 1.62-3.58 3.66-5.45 0.33-0.99 0.66-1.98 1-3h-3v4c-0.99-0.33-1.98-0.66-3-1 1.25-3.65 1.67-4.78 5-7 5.35-0.369 9.93 0.261 15.1 1.56 1.89 0.513 1.89 0.513 3.88 0.438v-6h2c-0.278-0.959-0.278-0.959-0.562-1.94-0.144-0.681-0.289-1.36-0.438-2.06 0.33-0.33 0.66-0.66 1-1z" fill="#6B727A"/>
<path transform="translate(280,617)" d="m0 0h9v4h2c0.00174 0.728 0.00347 1.46 0.00526 2.21 0.103 43.3 0.212 86.5 0.326 130 0.0138 5.21 0.0275 10.4 0.0412 15.6 0.00273 1.04 0.00546 2.08 0.00827 3.14 0.0439 16.7 0.0846 33.5 0.124 50.2 0.0407 17.2 0.0849 34.4 0.132 51.6 0.029 10.6 0.0554 21.2 0.0783 31.8 0.016 7.3 0.0355 14.6 0.0575 21.9 0.0125 4.19 0.0237 8.38 0.0308 12.6 0.0291 16.7 0.184 33.5 0.647 50.2 0.0289 1.11 0.0289 1.11 0.0585 2.24 0.0554 2.08 0.117 4.15 0.182 6.23 0.0354 1.18 0.0707 2.36 0.107 3.57 0.0861 2.96 0.0861 2.96 1.2 5.89-0.0165 1.95-0.0334 3.89-0.0547 5.84 0.57 22.5 15.8 49.5 31.6 64.6 1.57 1.48 3.16 2.94 4.78 4.36 2.17 2.85 2.04 4.67 1.65 8.17-0.33 0.33-0.66 0.66-1 1-0.0406 1.67-0.0427 3.33 0 5-4.59 1.39-7.48 0.302-12-1-4.32-0.422-7.27-0.488-11 2-0.724 2.06-0.724 2.06-1 4 0.66 0.33 1.32 0.66 2 1v-4h3c-0.33 1.65-0.66 3.3-1 5-0.99 0.33-1.98 0.66-3 1-0.33 3.3-0.66 6.6-1 10-0.99 0.33-1.98 0.66-3 1 0.33 0.66 0.66 1.32 1 2h2c-0.33 0.99-0.66 1.98-1 3h-2c-0.33 0.99-0.66 1.98-1 3-0.99-0.33-1.98-0.66-3-1 0.165-0.784 0.33-1.57 0.5-2.38 0.562-2.51 0.562-2.51 0.5-4.62h-2c-0.33 0.99-0.66 1.98-1 3h-5v3c1.98-0.33 3.96-0.66 6-1-0.33 0.99-0.66 1.98-1 3h-5c-0.33 0.99-0.66 1.98-1 3h-2v-2c-0.841-0.354-0.841-0.354-1.7-0.715-7.95-4.44-14-13-19.3-20.3-1.12-1.45-1.12-1.45-2.27-2.94-16.2-21.4-29.4-49.8-30.6-77-0.144-2.14-0.585-4.02-1.14-6.09-1.98-12.9-2.15-26-2.13-39.1-0.00134-1.44-0.0031-2.87-0.00523-4.31-0.00446-3.87-0.0027-7.75 4.16e-4 -11.6 0.0019-3.3 2.26e-4 -6.6-0.00145-9.91-0.00493-9.78-3.59e-4 -19.6 0.00689-29.3 0.00402-5.53 0.00586-11.1 0.00747-16.6 0.015-45.5 0.11-90.9 0.527-136 0.0313-3.42 0.061-6.85 0.0906-10.3 0.0465-5.29 0.0987-10.6 0.156-15.9 0.0201-1.89 0.0389-3.78 0.0563-5.67 0.024-2.55 0.0539-5.09 0.0856-7.64 0.00863-1.08 0.00863-1.08 0.0174-2.19 0.0729-5.1 0.549-10.1 1.19-15.2h1c0.083 1.13 0.083 1.13 0.168 2.28 0.252 3.39 0.511 6.77 0.77 10.2 0.087 1.18 0.174 2.37 0.264 3.59 0.087 1.12 0.174 2.25 0.264 3.41 0.0786 1.04 0.157 2.08 0.238 3.16 0.04 2.36 0.04 2.36 1.3 3.41 2.67 0.141 5.32 0.0425 8 0 0.66-1.32 1.32-2.64 2-4-1.98 0.495-1.98 0.495-4 1v-2h2v-4h3v-5c1.49-0.495 1.49-0.495 3-1v-4h3v-2h2v2h3v-2c0.639-0.215 1.28-0.431 1.94-0.653 2.31-1.19 2.31-1.19 2.78-3.82 0.0984-1.02 0.197-2.04 0.298-3.08 0.177-1.66 0.177-1.66 0.357-3.36 0.105-1.16 0.21-2.32 0.318-3.52 0.231-2.29 0.464-4.58 0.699-6.87 0.142-1.53 0.142-1.53 0.288-3.09 0.325-2.6 0.325-2.6 1.33-5.6 0.201-1.44 0.363-2.88 0.5-4.32 0.123-1.28 0.123-1.28 0.248-2.6 0.0831-0.913 0.166-1.83 0.252-2.77 0.132-1.4 0.132-1.4 0.268-2.84 0.647-7.04 1.09-14.1 1.39-21.1 0.344-3.35 0.344-3.35 1.25-6.04 1.99-6.02 2.63-12.4 3.59-18.6 0.165-1.04 0.33-2.08 0.5-3.15 0.144-0.941 0.289-1.88 0.438-2.85 0.574-2.73 1.45-5.12 2.56-7.68z" fill="#697078"/>
<path transform="translate(799 129)" d="m0 0c23.2-0.662 46 6.73 63 22.8 17.5 17.3 26.9 38.7 27.4 63.3-0.58 24-9.5 43-26.2 60.1-0.81 0.828-1.62 1.66-2.45 2.51-7.19 7.04-15 12.6-23.7 17.7-2.9 1.86-4.77 3.08-6.85 5.82-0.615 3.04-0.605 6.05-0.609 9.14-0.0165 0.882-0.0331 1.76-0.0501 2.67-0.0485 2.81-0.0699 5.62-0.0905 8.44-0.0282 1.91-0.0581 3.82-0.0898 5.73-0.0739 4.67-0.123 9.35-0.16 14h-1c-0.495-12.4-0.495-12.4-1-25-0.66-0.33-1.32-0.66-2-1 0.0232 0.675 0.0464 1.35 0.0703 2.05 0.018 0.892 0.0361 1.78 0.0547 2.7 0.0232 0.882 0.0464 1.76 0.0703 2.67-0.204 2.69-0.83 4.28-2.2 6.58-0.0735-1.37-0.0735-1.37-0.148-2.77-0.0748-1.19-0.15-2.38-0.227-3.6-0.0696-1.18-0.139-2.37-0.211-3.59-0.116-3.14-0.116-3.14-2.41-5.04v-3c-1.32-0.33-2.64-0.66-4-1v-3h-2c-0.33-1.32-0.66-2.64-1-4-1.65-0.33-3.3-0.66-5-1v-2c-6.77-1.48-11.1-0.638-17 3-5.65 3.86-7.3 7.28-9.19 13.8-0.844 2.81-1.76 5.5-2.81 8.25-0.99 0.33-1.98 0.66-3 1-1.48 2.95-1.22 5.68-1.32 8.98-0.0208 0.685-0.0416 1.37-0.063 2.08-0.0654 2.19-0.124 4.38-0.183 6.57-0.0432 1.48-0.0868 2.97-0.131 4.45-0.107 3.64-0.208 7.28-0.307 10.9-0.99-0.33-1.98-0.66-3-1-0.00547-1.13-0.00547-1.13-0.011-2.29-0.0379-7.12-0.0947-14.2-0.173-21.4-0.0395-3.66-0.0717-7.32-0.0871-11-0.0152-3.53-0.0496-7.07-0.0973-10.6-0.022-2-0.0242-4.01-0.026-6.01-0.0197-1.22-0.0394-2.44-0.0598-3.7-0.00888-1.07-0.0178-2.15-0.0269-3.26-0.974-5.25-5.31-7.46-9.49-10.3-0.606-0.416-1.21-0.832-1.84-1.26-4.68-3.27-8.91-6.55-12.8-10.7-1.47-1.62-1.47-1.62-3.87-3.38-14.4-11.9-22.5-29.4-26.2-47.4-1.56-18.4 1.34-34.3 9.69-50.7 0.536-1.07 1.07-2.14 1.62-3.25 11.7-21.7 32.1-34.7 55.1-41.9 5.5-1.49 10.4-1.82 16.1-2.05z" fill="#697078"/>
<path transform="translate(1350,1061)" d="m0 0c-0.66 0.99-1.32 1.98-2 3h-2v2c1.64 0.217 1.64 0.217 3.31 0.438 3.69 0.562 3.69 0.562 6.69 1.56 0.33 0.66 0.66 1.32 1 2 0.99 0.33 1.98 0.66 3 1 0.33 0.99 0.66 1.98 1 3h4v-2c1.98-0.33 3.96-0.66 6-1-0.66-0.33-1.32-0.66-2-1 0.33-0.99 0.66-1.98 1-3 1.44-0.196 2.87-0.381 4.31-0.562 0.801-0.104 1.6-0.209 2.43-0.316 2.26-0.121 2.26-0.121 5.26 0.879-7.74 23.4-19.2 42.5-35.9 60.7-1.4 1.57-2.75 3.19-4.04 4.86-3.72 4.51-8.44 7.89-13 11.5-0.826 0.655-0.826 0.655-1.67 1.32-20.6 16.2-45 27.6-71.3 29.5-2.2 0.161-2.2 0.161-4.99 1.21-1.53 0.0697-3.07 0.0845-4.6 0.0625-0.884-0.00773-1.77-0.0155-2.68-0.0234-0.92-0.0129-1.84-0.0258-2.79-0.0391-1.82-0.0255-3.65-0.0465-5.47-0.0625-1.21-0.0174-1.21-0.0174-2.45-0.0352-2.09-0.0347-2.09-0.0347-4.02 1.1-2.88 0.0982-5.74 0.135-8.62 0.127-0.903 0.00156-1.81 0.00312-2.74 0.00473-3.04 0.00401-6.09 8.21e-4 -9.13-0.00232-2.17 0.00135-4.35 0.00313-6.52 0.00531-5.92 0.00457-11.8 0.00279-17.8-3.79e-4 -6.18-0.00252-12.4-1.86e-4 -18.5 0.00139-10.4 0.00182-20.8-5.84e-4 -31.2-0.00534-12-0.00544-24-0.00368-36.1 0.00183-10.3 0.00453-20.6 0.00518-30.9 0.00256-6.16-0.00156-12.3-0.00176-18.5 0.00154-5.79 0.00288-11.6 9.01e-4 -17.4-0.00489-2.13-0.00133-4.26-9.34e-4 -6.39 0.00126-2.9 0.00271-5.8-6.72e-4 -8.69-0.00568-0.853 0.00223-1.71 0.00446-2.58 0.00676-5.8-0.0196-5.8-0.0196-8.03-1.13-1.87-0.13-3.75-0.229-5.62-0.312-5.66-0.434-9.64-1.62-14.4-4.69-0.887-0.536-1.77-1.07-2.69-1.62-6.27-6.44-8.69-14.8-8.6-23.6 1-9.84 6.04-18.3 13.3-24.8 4.19-3.11 7.97-3.53 13-3.68 1.18-0.0497 1.18-0.0497 2.39-0.1 9.26-0.352 18.5-0.343 27.8-0.316 1.96 0.00192 3.91 0.00339 5.87 0.00443 4.17 0.00313 8.34 0.00935 12.5 0.0181 6.59 0.0136 13.2 0.0194 19.8 0.0241 14 0.011 28 0.0306 41.9 0.051 15.1 0.0221 30.3 0.0426 45.4 0.0534 6.56 0.00498 13.1 0.0148 19.7 0.0284 4.07 0.00745 8.13 0.0108 12.2 0.013 1.89 0.00187 3.77 0.00548 5.66 0.0109 2.57 0.00721 5.14 0.00825 7.72 0.00778 1.12 0.00539 1.12 0.00539 2.27 0.0109 3.73-0.00741 7.13-0.319 10.8-1.12 1.84 0.0227 3.68 0.05 5.52 0.116 10.3 0.328 20.4-0.676 30.5-1.87 0.713-0.0787 1.43-0.157 2.16-0.238 10.6-1.18 20.2-2.87 28.8-9.39 3.05-2.25 6.1-4.37 9.31-6.38 13.2-8.91 20.7-19.7 28.6-33.2 0.66 0.33 1.32 0.66 2 1 5.88 0.466 5.88 0.466 11-2 5.78-2.48 10.7-3.34 17-3z" fill="#6B727A"/>
<path transform="translate(1129,708)" d="m0 0c1.37 0.628 1.37 0.628 2.77 1.27 19.5 9.72 34.8 30.9 41.7 51.3 0.543 1.81 1.06 3.62 1.56 5.44 0.532 1.58 0.532 1.58 1.07 3.18 5.02 20.7-1.66 42.2-12 60.1-9.06 14.1-21.1 26.5-36.1 34.2-0.603 0.314-1.21 0.628-1.83 0.952-10.8 5.16-22.2 6.08-33.9 5.99-1.32-0.00902-2.64-0.018-3.99-0.0273-21.1-0.374-37.3-6.51-53.3-20.4-1.05-0.839-1.05-0.839-2.13-1.7-0.638-0.513-1.28-1.03-1.93-1.55-0.548-0.438-1.1-0.877-1.66-1.33-1.28-1.42-1.28-1.42-1.71-3.47-0.187-0.645-0.374-1.29-0.566-1.95-0.601-0.294-1.2-0.588-1.82-0.891-8.55-4.35-14.1-22-17-30.4-5.99-21.4-1.95-46.2 7.78-65.7 12.2-21.5 33.5-35.5 57-42 18.8-4.34 38.8-1.07 56 7z" fill="#6B727A"/>
<path transform="translate(562,714)" d="m0 0c3.48 2.86 6.75 5.89 10 9 0.666 0.58 1.33 1.16 2.02 1.76 14.3 13 23.9 33.1 25 52.2 1.14 25.4-5.92 47.7-23 66.8-13.1 14.1-30.2 25.7-49.9 26.8-3.22 0.0979-6.42 0.113-9.64 0.0797-2.45-0.0193-4.89 0.0204-7.33 0.0647-20.9 0.111-39.1-9.13-54-23.5-2.13-2.32-2.13-2.32-2.13-4.32-0.619-0.227-1.24-0.454-1.88-0.688-2.75-1.7-2.99-3.37-4.12-6.31-0.99-0.33-1.98-0.66-3-1-1.42-2.09-2.66-4.11-3.88-6.31-0.351-0.628-0.702-1.26-1.06-1.9-11.6-21.1-14-42.9-7.44-66.2 7.34-21.9 21.4-40.3 42.2-50.9 28.5-13.8 61.5-14.5 88.1 4.31z" fill="#6B727A"/>
<path transform="translate(397 372)" d="m0 0c0.856-0.00426 1.71-0.00853 2.59-0.0129 0.937 4.53e-4 1.87 9.06e-4 2.84 0.00137 1.48-0.00504 1.48-0.00504 3-0.0102 3.28-0.00952 6.56-0.0115 9.84-0.0125 2.28-0.00321 4.56-0.00658 6.84-0.0101 4.79-6e-3 9.58-0.00784 14.4-0.00725 6.12 1.01e-4 12.2-0.0135 18.4-0.0308 4.72-0.0112 9.43-0.0131 14.1-0.0126 2.26-0.00118 4.51-0.00558 6.77-0.0133 3.17-0.00986 6.33-0.0069 9.5-8.95e-4 0.922-0.00562 1.84-0.0112 2.8-0.017 15.9 0.0759 15.9 0.0759 21.4 5.26 6.66 7.53 11.4 14 11.6 24.2 0.0561 1.91 0.0561 1.91 0.113 3.86-0.86 7.99-5.06 13.3-10.6 18.8-0.527 0.567-1.05 1.13-1.6 1.72-5.45 5.5-11.5 6.45-19.1 6.64-1.76 0.00271-3.52-0.00538-5.28-0.0226-0.969-0.00131-1.94-0.00263-2.94-0.00398-3.17-0.00645-6.35-0.0269-9.52-0.047-2.22-0.00628-4.43-0.0115-6.65-0.0158-5.82-0.0133-11.6-0.0377-17.5-0.0654-9.33-0.0432-18.7-0.0729-28-0.096-3.25-0.0102-6.51-0.0273-9.76-0.045-1.99-0.00683-3.99-0.0134-5.98-0.0198-0.903-0.00674-1.81-0.0135-2.74-0.0204-4.11-0.00747-7.84 0.152-11.9 1.1-2.35 0.0431-4.71 0.0403-7.06 0-3.87-0.0662-7.22-0.0669-10.9 1-1.95 0.155-1.95 0.155-3.94 0.312-15.6 1.67-28.1 9.1-40.1 18.7-0.757 0.601-1.51 1.2-2.29 1.82-4.46 3.71-7.93 7.78-11.4 12.5-0.445 0.568-0.889 1.14-1.35 1.72h-1c0.33-2.31 0.66-4.62 1-7-0.99 0.495-0.99 0.495-2 1-0.217 0.99-0.217 0.99-0.438 2-0.278 0.99-0.278 0.99-0.562 2-1.49 0.495-1.49 0.495-3 1-0.431-5.93 0.398-9.69 3.03-15 1.92-3.92 1.93-6.04 1.04-10.2-0.863-4.36-1.06-8.31-1.06-12.8-0.373-1.57-0.77-3.13-1.19-4.69-0.972-3.98-0.972-3.98 0.438-6.88 1.75-1.44 1.75-1.44 3.75-1.44 0.33-0.99 0.66-1.98 1-3 2.64-0.33 5.28-0.66 8-1-0.33-1.32-0.66-2.64-1-4 6.5-3 6.5-3 11-3 0.103-0.681 0.206-1.36 0.312-2.06 0.835-3.57 2.18-6.6 3.69-9.94h8v-4h7v-3c1.21-0.34 1.21-0.34 2.44-0.688 0.846-0.433 1.69-0.866 2.56-1.31 0.894-2.55 0.894-2.55 1-5-1.32-0.33-2.64-0.66-4-1-0.33 0.66-0.66 1.32-1 2-1.32-1.32-2.64-2.64-4-4 6.3-2.78 12-3.1 18.8-2.94 2.22 0.0887 2.22 0.0887 4.17-1.06 1.41-0.0718 2.83-0.0839 4.25-0.0625 0.837 0.00773 1.67 0.0155 2.54 0.0234 1.77 0.026 3.53 0.052 5.3 0.0781 0.839 0.00773 1.68 0.0155 2.54 0.0234 0.768 0.0116 1.54 0.0232 2.33 0.0352 3.21-0.153 5.97-1.22 9.26-1.23z" fill="#6D747C"/>
<path transform="translate(828 829)" d="m0 0c9.23-0.0594 18.5-0.102 27.7-0.127 2.02-0.00671 4.04-0.0168 6.06-0.0278 3.68-0.0174 7.35-0.0219 11-0.0219 1.58-0.0107 1.58-0.0107 3.2-0.0216 0.956 0.00303 1.91 0.00605 2.9 0.00917 1.23-0.00214 1.23-0.00214 2.49-0.00432 2.5 0.278 4.11 0.9 6.22 2.25 4.02 11.1-2.02 24.5-6.62 34.6-9.95 20.8-28.5 38.6-50.4 46.4-22 6.92-45.7 5.59-66.7-4.19-21.8-11.9-38.7-31.2-46.1-55.1-1.7-6.72-2.43-13.8-2.25-20.8 3.03-3.03 6.5-2.31 10.6-2.32 0.894-0.01 1.79-0.0201 2.71-0.0304 2.99-0.0311 5.98-0.048 8.98-0.0648 2.11-0.0189 4.22-0.0386 6.34-0.0591 5.67-0.0523 11.3-0.0919 17-0.128 4.67-0.0312 9.34-0.0687 14-0.106 13.8-0.11 27.5-0.196 41.3-0.274 3.84-0.0224 7.68-0.0472 11.5-0.072z" fill="#6D747C"/>
<path transform="translate(332,1086)" d="m0 0c0.64 0.51 0.64 0.51 1.29 1.03 18.4 14.2 38.6 24.2 61.7 27 0.7 0.0861 1.4 0.172 2.12 0.261 3.54 0.427 7.08 0.82 10.6 1.17 1.3 0.141 2.6 0.283 3.94 0.429 1.17 0.115 2.35 0.23 3.56 0.348 2.79 0.742 2.79 0.742 4.18 2.81 0.299 0.956 0.299 0.956 0.604 1.93h-2c0.33 0.99 0.66 1.98 1 3h-4v2h3c0.33 0.99 0.66 1.98 1 3h-4v2h14c-1.13-0.454-2.27-0.908-3.44-1.38-3.56-1.62-3.56-1.62-4.56-3.62 3.63 0.33 7.26 0.66 11 1v2h3v2c0.835 0.155 0.835 0.155 1.69 0.312 2.31 0.688 2.31 0.688 4.44 2 5.61 3.29 11.3 6.03 17.9 5.69v4h2v2c1.39-0.0309 1.39-0.0309 2.81-0.0625 3.19 0.0625 3.19 0.0625 6.19 1.06v2c1.65 0.33 3.3 0.66 5 1v2c1.32 0.33 2.64 0.66 4 1v2c0.722-0.103 1.44-0.206 2.19-0.312 4.02 0.447 5.25 2.28 7.81 5.31 2.53 3.49 3.37 5.68 3 10-0.99 0.33-1.98 0.66-3 1v2c-3.47 0.495-3.47 0.495-7 1 2.31 0.66 4.62 1.32 7 2v2c-3.63 0.33-7.26 0.66-11 1v2c-7.43 3.29-7.43 3.29-11 4 0.33 2.31 0.66 4.62 1 7h-3c-1.37 0.116-1.37 0.116-2.78 0.234-4.12-0.3-6.31-1.78-9.79-3.98-15.3-9.17-32.3-10.1-49.7-12.1-3.54-0.418-7.08-0.845-10.6-1.27-2.61-0.311-5.22-0.607-7.83-0.904-12.8-1.5-24.7-4.12-36.7-9.16-0.7-0.293-1.4-0.587-2.12-0.889-16-6.87-30.6-15.6-44-26.8-3.42-2.84-6.97-5.5-10.6-8.12 0.84-1.96 0.84-1.96 2-4 2.56-0.625 2.56-0.625 5-1 0.33-0.66 0.66-1.32 1-2-1.98 0.66-3.96 1.32-6 2-0.33-0.66-0.66-1.32-1-2 0.33-0.66 0.66-1.32 1-2 0.784-0.144 1.57-0.289 2.38-0.438 2.88-0.616 3.79-1.34 5.62-3.56 0.981 3.05 0.981 4.95 0 8h2c1.38-1.63 2.72-3.29 4-5-1.98 0.495-1.98 0.495-4 1 0.33-0.99 0.66-1.98 1-3 0.66-0.33 1.32-0.66 2-1 0.605-2.5 0.958-5.01 1.34-7.55 0.738-2.73 1.62-3.58 3.66-5.45 0.33-0.99 0.66-1.98 1-3h-3v4c-0.99-0.33-1.98-0.66-3-1 1.25-3.65 1.67-4.78 5-7 5.35-0.369 9.93 0.261 15.1 1.56 1.89 0.513 1.89 0.513 3.88 0.438v-6h2c-0.278-0.959-0.278-0.959-0.562-1.94-0.144-0.681-0.289-1.36-0.438-2.06 0.33-0.33 0.66-0.66 1-1z" fill="#6D747C"/>
<path transform="translate(1308,1114)" d="m0 0c4.16-0.0816 7.95 0.0175 12 1 1.02 3.07 1.13 5.22 1.12 8.44 0.00258 0.947 0.00516 1.89 0.00781 2.87-0.118 2.39-0.452 4.4-1.13 6.69h3v2c1.65-0.114 3.29-0.241 4.94-0.375 0.917-0.0696 1.83-0.139 2.78-0.211 0.754-0.137 1.51-0.273 2.29-0.414 0.33-0.66 0.66-1.32 1-2v3c-1.65 0.33-3.3 0.66-5 1-0.33 0.99-0.66 1.98-1 3h6c-19.7 20.6-49.7 33.8-78 35.8-2.2 0.161-2.2 0.161-4.99 1.21-1.53 0.0697-3.07 0.0845-4.6 0.0625-0.884-0.00773-1.77-0.0155-2.68-0.0234-0.92-0.0129-1.84-0.0258-2.79-0.0391-1.82-0.0255-3.65-0.0465-5.47-0.0625-0.808-0.0116-1.62-0.0232-2.45-0.0352-2.09-0.0347-2.09-0.0347-4.02 1.1-2.88 0.0982-5.74 0.135-8.62 0.127-0.903 0.00156-1.81 0.00312-2.74 0.00473-3.04 0.00401-6.09 8.21e-4 -9.13-0.00232-2.17 0.00135-4.35 0.00313-6.52 0.00531-5.92 0.00457-11.8 0.00279-17.8-3.79e-4 -6.18-0.00252-12.4-1.86e-4 -18.5 0.00139-10.4 0.00182-20.8-5.84e-4 -31.2-0.00534-12-0.00544-24-0.00368-36.1 0.00183-10.3 0.00453-20.6 0.00518-30.9 0.00256-6.16-0.00156-12.3-0.00176-18.5 0.00154-5.79 0.00288-11.6 9.01e-4 -17.4-0.00489-2.13-0.00133-4.26-9.34e-4 -6.39 0.00126-2.9 0.00271-5.8-6.72e-4 -8.69-0.00568-0.853 0.00223-1.71 0.00446-2.58 0.00676-5.8-0.0196-5.8-0.0196-8.03-1.13-1.87-0.13-3.75-0.229-5.62-0.312-5.66-0.434-9.64-1.62-14.4-4.69-0.887-0.536-1.77-1.07-2.69-1.62-6.27-6.44-8.69-14.8-8.6-23.6 1-9.84 6.04-18.3 13.3-24.8 4.24-3.19 7.98-3.47 13.1-3.38 1.16 0.0131 1.16 0.0131 2.35 0.0264 6.06 0.148 12 0.738 18 1.6 0.819 0.109 1.64 0.218 2.48 0.331 5.65 0.916 5.65 0.916 7.55 3.53 0.155 0.624 0.309 1.25 0.469 1.89-2.47-0.495-2.47-0.495-5-1v2h3c0.679 0.953 0.679 0.953 1.37 1.93 2.1 2.68 3.37 2.78 6.69 3.26 0.975 0.151 1.95 0.302 2.95 0.457 2.77 0.33 5.52 0.541 8.3 0.73 4.57 0.416 6.98 1.84 10.7 4.62 5.17 2.91 9.99 5.53 16 6 0.495 1.48 0.495 1.48 1 3 0.713 0.049 1.43 0.098 2.16 0.148 6.75 0.527 12.4 1.72 18.8 3.85v2c2.31 0.66 4.62 1.32 7 2v2h2v2h6v4c0.99 0.33 1.98 0.66 3 1h-3v4c0.812-0.00524 1.62-0.0105 2.46-0.0159 3.7-0.0209 7.4-0.0338 11.1-0.0466 1.28-0.00838 2.55-0.0168 3.87-0.0254 1.86-0.00483 1.86-0.00483 3.76-0.00977 1.7-0.00786 1.7-0.00786 3.44-0.0159 4.63 0.156 8.96 0.645 13.4 2.11 2.94 0.167 5.86 0.282 8.8 0.352 0.875 0.0232 1.75 0.0463 2.65 0.0702 1.86 0.0477 3.72 0.0929 5.57 0.136 2.8 0.0663 5.6 0.144 8.4 0.224 16.6 0.612 16.6 0.612 32.9-1.78 4.19-1.07 8.33-1.21 12.6-1.38 6.41-0.288 12.6-1.02 18.1-4.62 0.33-0.99 0.66-1.98 1-3 0.639-0.289 1.28-0.578 1.94-0.875 2.31-0.963 2.31-0.963 2.94-3.56 1.56-3.55 3.67-3.94 7.12-5.56 1.14-1.21 1.14-1.21 2.31-2.44 4.39-4.18 9.82-6.23 15.7-7.56-0.33-0.99-0.66-1.98-1-3-0.66 0.66-1.32 1.32-2 2-2.12-0.375-2.12-0.375-4-1 4.75-3 4.75-3 7-3 0.33-1.32 0.66-2.64 1-4h3v4h2v-4h12v-1h-12v-4c0.843 0.0232 1.69 0.0464 2.55 0.0703 1.1 0.018 2.19 0.0361 3.32 0.0547 1.09 0.0232 2.18 0.0464 3.3 0.0703 2.96 0.105 2.96 0.105 4.82-2.2 1.52-0.495 1.52-0.495 3.06-1 3.06-0.658 3.06-0.658 3.94-3h6v2h2c0.66-2.31 1.32-4.62 2-7z" fill="#6D747C"/>
<path transform="translate(557,725)" d="m0 0c0.763 0.165 1.53 0.33 2.31 0.5 2.72 0.591 2.72 0.591 5.69 0.5 2.38 0.438 2.38 0.438 5 2 0.867 1.49 1.67 3.02 2.44 4.56 1.15 2.42 1.15 2.42 2.56 4.44 3.16 1.21 3.16 1.21 6 1v-2c5.64 1.88 8.21 8.97 11 14 9.2 19.3 9.66 42.7 2.72 62.7-2.89 7.66-2.89 7.66-4.72 11.3-0.557-0.186-1.11-0.371-1.69-0.562-2.71-0.513-4.66-0.102-7.31 0.562v-2h-5v2c-1.88 2.12-1.88 2.12-4 4h-2v2h-2c-0.495 1.49-0.495 1.49-1 3h-2v2h-2v-2h-3v2h-2v-2h-2v-2c-1.49-0.495-1.49-0.495-3-1-0.495-3.47-0.495-3.47-1-7h-2v-2h-2v-2c-1.65-0.33-3.3-0.66-5-1v-2c-1.18-0.103-2.35-0.206-3.56-0.312-5.84-0.625-11.5-1.91-17.3-3.16-3.05-0.823-3.05-0.823-5.16 0.477v-2c-2.48 0.99-2.48 0.99-5 2v-2c-0.615 0.058-1.23 0.116-1.86 0.176-2.46 0.137-4.7 0.177-7.14-0.176-1.81-2.25-1.81-2.25-3-5-0.681-0.639-1.36-1.28-2.06-1.94-3.04-3.24-3.87-6.55-4.06-10.9 0.0412-0.701 0.0825-1.4 0.125-2.12h-2v-4c-0.66-0.33-1.32-0.66-2-1 0.66-1.32 1.32-2.64 2-4-0.66-0.33-1.32-0.66-2-1 0.66-1.65 1.32-3.3 2-5h2v-4h2c-0.0412-0.784-0.0825-1.57-0.125-2.38 0.125-2.62 0.125-2.62 2.12-4.62 2.62-0.625 2.62-0.625 5-1 0.66-1.98 1.32-3.96 2-6 0.687-0.11 1.37-0.219 2.08-0.332 0.901-0.159 1.8-0.317 2.73-0.48 0.893-0.151 1.79-0.302 2.71-0.457 2.53-0.526 2.53-0.526 4.01-2.29 1.47-1.44 1.47-1.44 3.73-1.73 0.801 0.0348 1.6 0.0696 2.43 0.105 0.808 0.0271 1.62 0.0541 2.45 0.082 0.615 0.0348 1.23 0.0696 1.86 0.105v-4c1.66-0.683 3.33-1.35 5-2 0.887-0.371 1.77-0.742 2.69-1.12 4.37-1.15 8.82-1.63 13.3-0.875 0.66 0.99 1.32 1.98 2 3 0.99 0.33 1.98 0.66 3 1v3c2.29 0.0808 4.58 0.139 6.88 0.188 1.28 0.0348 2.55 0.0696 3.87 0.105 1.61-0.145 1.61-0.145 3.26-0.293 2.37-2.85 2.37-2.85 1.62-6.19-0.206-0.928-0.413-1.86-0.625-2.81h-2c-1.76-3.09-2-4.23-2-8-0.897-0.124-0.897-0.124-1.81-0.25-2.78-0.955-3.62-2.32-5.19-4.75h4c-1.32-1.65-2.64-3.3-4-5z" fill="#697078"/>
<path transform="translate(848 829)" d="m0 0c3.7 1.03e-4 7.41-0.0137 11.1-0.0308 2.87-0.0111 5.75-0.0131 8.62-0.0126 1.37-0.00118 2.73-0.00558 4.1-0.0133 1.9-0.00979 3.8-0.00566 5.7-8.95e-4 1.08-0.00143 2.15-0.00285 3.26-0.00432 2.81 0.249 4.46 0.687 6.8 2.25 4.02 11.1-2.02 24.5-6.62 34.6-5.22 11-12.5 20.1-21.4 28.4-0.33-0.66-0.66-1.32-1-2-0.66-0.33-1.32-0.66-2-1v-2c-9.11-2.09-18.2-3.97-27.5-4.75-1.92-0.19-3.83-0.466-5.74-0.777-4.93-0.617-9.74-0.483-14.7-0.342-3.85 0.0585-6.79 0.0686-10.1-2.13v-2c-3.3-0.66-6.6-1.32-10-2-0.165-0.908-0.33-1.82-0.5-2.75-1.86-4.03-3.52-4.78-7.46-6.5-2.33-0.85-4.58-1.44-7.04-1.75v-1h6c0.33-2.31 0.66-4.62 1-7 1.94-0.562 1.94-0.562 4-1 0.33 0.33 0.66 0.66 1 1 0.66-3.96 1.32-7.92 2-12h7c0.33-0.99 0.66-1.98 1-3 3.53-2.01 7.21-3.55 11-5v-2h4v-3c-0.949 0.0206-1.9 0.0412-2.88 0.0625-3.12-0.0625-3.12-0.0625-5.12-1.06v-2c15.1-1.25 30.3-1.19 45.4-1.19z" fill="#6C737B"/>
<path transform="translate(274,1031)" d="m0 0h2v2c0.99 0.33 1.98 0.66 3 1 2.1 1.97 4.03 4.03 5.94 6.19 2.45 2.15 3.84 2.58 7.06 2.81 2.73-0.377 2.73-0.377 5-1 0.33-1.32 0.66-2.64 1-4h2c0.226 0.507 0.451 1.01 0.683 1.54 7.35 16.4 15.8 31.1 29.4 43.2 1.94 2.25 1.94 2.25 2.31 5.5-0.375 2.75-0.375 2.75-1.38 3.75-0.0406 1.67-0.0427 3.33 0 5-4.59 1.39-7.48 0.302-12-1-4.32-0.422-7.27-0.488-11 2-0.724 2.06-0.724 2.06-1 4 0.99 0.495 0.99 0.495 2 1v-4h3c-0.33 1.65-0.66 3.3-1 5-0.99 0.33-1.98 0.66-3 1-0.33 3.3-0.66 6.6-1 10-0.99 0.33-1.98 0.66-3 1 0.33 0.66 0.66 1.32 1 2h2c-0.495 1.48-0.495 1.48-1 3h-2c-0.495 1.48-0.495 1.48-1 3-0.99-0.33-1.98-0.66-3-1 0.165-0.784 0.33-1.57 0.5-2.38 0.562-2.51 0.562-2.51 0.5-4.62h-2c-0.495 1.48-0.495 1.48-1 3h-5v3c2.97-0.495 2.97-0.495 6-1-0.495 1.48-0.495 1.48-1 3h-5c-0.495 1.48-0.495 1.48-1 3h-2v-2c-0.841-0.354-0.841-0.354-1.7-0.715-7.93-4.43-14-13-19.3-20.3-0.403-0.553-0.806-1.11-1.22-1.68-9.91-13.6-9.91-13.6-11.8-17.3 0.875-3.06 0.875-3.06 2-6-0.298-2.2-0.298-2.2-1-4 0-3.2 0.993-5.98 2-9 1.37-4.54 1.37-9.2 1.62-13.9 0.359-2.93 1-4.55 2.38-7.09 0.167-3.17 0.167-3.17 0-6 3.86-2.15 6.55-3.39 11-3v-5z" fill="#6B727A"/>
<path transform="translate(397 372)" d="m0 0c0.856-0.00426 1.71-0.00853 2.59-0.0129 1.4 6.8e-4 1.4 6.8e-4 2.84 0.00137 1.48-0.00504 1.48-0.00504 3-0.0102 3.28-0.00952 6.56-0.0115 9.84-0.0125 2.28-0.00321 4.56-0.00658 6.84-0.0101 4.79-6e-3 9.58-0.00784 14.4-0.00725 6.12 1.01e-4 12.2-0.0135 18.4-0.0308 4.72-0.0112 9.43-0.0131 14.1-0.0126 2.26-0.00118 4.51-0.00558 6.77-0.0133 3.17-0.00986 6.33-0.0069 9.5-8.95e-4 0.922-0.00562 1.84-0.0112 2.8-0.017 15.9 0.0759 15.9 0.0759 21.4 5.26 8.07 9.12 11.8 16 11.6 28.3-0.678 9.52-6.5 14.5-13.3 20.7-0.66-0.33-1.32-0.66-2-1-0.594-2.65-0.742-5.29-1-8h-4c1.98 2.48 1.98 2.48 4 5h-6c-0.33-0.66-0.66-1.32-1-2 0.33-0.99 0.66-1.98 1-3-0.33-0.66-0.66-1.32-1-2 0.938-2.12 0.938-2.12 2-4-1.98-0.495-1.98-0.495-4-1v-2h-3c-0.99-4.45-0.99-4.45-2-9-2.31-0.66-4.62-1.32-7-2v-2c-2.97-0.33-5.94-0.66-9-1-0.495 1.49-0.495 1.49-1 3-2.49 1.24-3.76 0.954-6.5 0.625-0.794-0.0902-1.59-0.18-2.41-0.273-2.09-0.352-2.09-0.352-4.09-1.35v-2c-1.03 0.0174-1.03 0.0174-2.08 0.0352-0.901 0.00902-1.8 0.018-2.73 0.0273-1.34 0.0174-1.34 0.0174-2.71 0.0352-2.48-0.0977-2.48-0.0977-5.48-1.1v-2c-0.949 0.186-1.9 0.371-2.88 0.562-3.88 0.559-7.4 0.162-11.3-0.305-5.27-0.478-10.6-0.332-15.8-0.258-0.309 0.639-0.619 1.28-0.938 1.94-1.06 2.06-1.06 2.06-2.06 3.06-1.76 0.262-3.54 0.46-5.31 0.625-0.966 0.0954-1.93 0.191-2.93 0.289-2.53 0.0786-4.37-0.153-6.76-0.914v-2h3c-0.495-0.949-0.99-1.9-1.5-2.88-1.5-3.12-1.5-3.12-1.5-5.12-1.48 0.0174-1.48 0.0174-2.99 0.0352-1.28 0.00902-2.56 0.018-3.88 0.0273-1.28 0.0116-2.55 0.0232-3.87 0.0352-3.26-0.0977-3.26-0.0977-5.26-1.1v-2c-2.64-0.33-5.28-0.66-8-1-0.289-0.969-0.577-1.94-0.875-2.94-0.767-3.17-0.767-3.17-3.12-4.06v-2c1.9 0.0174 1.9 0.0174 3.83 0.0352 1.66 0.00938 3.32 0.0185 4.98 0.0273 0.833 0.00838 1.67 0.0168 2.53 0.0254 1.2 0.00483 1.2 0.00483 2.43 0.00977 0.738 0.00524 1.48 0.0105 2.24 0.0159 3.2-0.182 5.92-1.24 9.2-1.25z" fill="#6B727A"/>
<path transform="translate(1121,750)" d="m0 0h2v2h7v2h2c0.495 2.48 0.495 2.48 1 5 1.65 0.33 3.3 0.66 5 1v3h-4v2h4v3c-0.66 0.33-1.32 0.66-2 1v2h-2v3h2v2h-2v2h-2c-0.103 6.11-0.039 12 0.977 18 0.0301 2.53-0.56 3.89-1.98 5.97-3.12 0.75-3.12 0.75-6 1v2c-0.652 0.193-1.3 0.387-1.98 0.586-1.31 0.391-1.31 0.391-2.65 0.789-0.859 0.255-1.72 0.51-2.6 0.773-1.91 0.587-3.81 1.24-5.68 1.95-3.47 1.02-6.36 1.1-9.97 1.03-1.15-0.018-2.3-0.0361-3.49-0.0547-1.3-0.0348-1.3-0.0348-2.63-0.0703v-2c-0.681 0.66-1.36 1.32-2.06 2-3.68 2.5-5.56 2.46-9.94 2-3.44-1-3.44-1-6-2v-5h-3c-2.62-5.53-4.03-10.9-5.19-16.9-0.177-0.847-0.354-1.69-0.537-2.57-1.11-5.62-1.44-10.8-1.28-16.6h3v-5c0.905-0.0387 0.905-0.0387 1.83-0.0781 5.4-0.383 7.36-0.987 11.2-4.92 4.4-0.463 6.28-0.48 10 2 2.65-0.312 2.65-0.312 5-1 0.66-1.98 1.32-3.96 2-6 4.16-1.01 8.04-1.1 12.3-1.06 1.25 0.00902 2.51 0.018 3.8 0.0273 0.953 0.0116 1.91 0.0232 2.89 0.0352 0.33-0.99 0.66-1.98 1-3z" fill="#697078"/>
<path transform="translate(1267,402)" d="m0 0c2.92-0.054 5.83-0.0937 8.75-0.125 0.825-0.0168 1.65-0.0335 2.5-0.0508 0.799-0.00645 1.6-0.0129 2.42-0.0195 0.733-0.0105 1.47-0.0209 2.22-0.0317 2.41 0.259 4.02 1.03 6.11 2.23v4c-1.98 0.66-3.96 1.32-6 2h7v-3c10.6 0.779 10.6 0.779 15 3v2c0.866 0.124 1.73 0.248 2.62 0.375 3.27 0.606 6.25 1.51 9.38 2.62v3h2c0.495 1.49 0.495 1.49 1 3h-6c0.33 0.33 0.66 0.66 1 1 1.48-0.248 1.48-0.248 3-0.5 3.03-0.0819 4.01 0.504 6.46 2.39 2.34 2.29 4.55 4.5 6.54 7.11v3c0.601 0.219 1.2 0.438 1.82 0.664 2.91 1.79 3.66 3.62 5.05 6.71 0.451 0.956 0.902 1.91 1.37 2.9 0.758 2.73 0.758 2.73 0.0156 4.95-1.26 1.77-1.26 1.77-3.26 3.77-3.12 0.125-3.12 0.125-6 0-0.495 0.99-0.495 0.99-1 2h8c-0.33 0.99-0.66 1.98-1 3-1.77 0.0271-3.54 0.0464-5.31 0.0625-0.986 0.0116-1.97 0.0232-2.99 0.0352-4.75-0.172-6.51-1.81-9.7-5.1-0.66-0.33-1.32-0.66-2-1v-2h-2v-2h-2v-2h-2v-2c-0.578 0.186-1.15 0.371-1.75 0.562-2.46 0.478-3.89 0.195-6.25-0.562v2h2c0.125 2.88 0.125 2.88 0 6l-2 2c-4.77 0-7.53-2.33-11.2-5.12-4.38-3.09-8.87-5.69-13.6-8.12-0.623-0.329-1.25-0.658-1.89-0.997-9.94-4.96-20.5-6.24-31.5-6.94-1.14-0.0819-2.28-0.164-3.45-0.248-2.77-0.198-5.53-0.386-8.3-0.564v-2c6.48-2.5 12.2-1.83 19-1v-2c-1.01-0.0735-1.01-0.0735-2.05-0.148-0.892-0.0748-1.78-0.15-2.7-0.227-0.882-0.0696-1.76-0.139-2.67-0.211-2.57-0.413-4.34-1.13-6.58-2.41 2.84-1.42 4.99-0.863 8.12-0.562 1.1 0.102 2.19 0.204 3.32 0.309 1.26 0.126 1.26 0.126 2.55 0.254 0.66-1.32 1.32-2.64 2-4h6c0.147-0.626 0.294-1.25 0.445-1.9 0.689-2.51 1.39-4.77 2.55-7.1 3.19-1.56 3.19-1.56 6-2-0.495-0.495-0.495-0.495-1-1-0.0408-2-0.0425-4 0-6z" fill="#6D747C"/>
<path transform="translate(234,828)" d="m0 0c1.32 0.66 2.64 1.32 4 2v9h2v14h2c0.33 2.64 0.66 5.28 1 8 0.66-2.64 1.32-5.28 2-8h2c0.0606 0.603 0.121 1.21 0.184 1.83 0.0838 0.799 0.168 1.6 0.254 2.42 0.122 1.18 0.122 1.18 0.246 2.39 0.257 2.34 0.257 2.34 0.914 4.47 0.402 1.89 0.402 1.89-0.598 4.89h-3v10h4c1.32 6.91 2.12 13.4 2.03 20.5-0.0647 8.19 0.171 16.3 0.469 24.5 0.194 5.33 0.37 10.7 0.5 16 0.0177 0.713 0.0354 1.43 0.0537 2.16 0.0471 2.15 0.0774 4.31 0.103 6.46 0.028 1.91 0.028 1.91 0.0566 3.85-0.215 3.56-1.05 6.18-2.21 9.52-0.292 2.26-0.513 4.53-0.676 6.8-0.103 1.3-0.206 2.6-0.313 3.94-0.0786 1.01-0.0786 1.01-0.159 2.05-2.36 29.7-2.36 29.7-8.85 36.2-0.66-0.33-1.32-0.66-2-1v3h-3c-3.58-10.8-2.15-24.4-2.13-35.7-0.00136-1.6-0.00314-3.21-0.00531-4.81-0.00451-4.3-0.00282-8.6 3.79e-4 -12.9 0.00255-4.52 1.78e-4 -9.03-0.00139-13.5-0.00181-7.57 5.57e-4 -15.1 0.00534-22.7 0.00547-8.75 0.00366-17.5-0.00183-26.2-0.00453-7.53-0.00518-15.1-0.00256-22.6 0.00156-4.49 0.00177-8.98-0.00154-13.5-0.00288-4.21-8.97e-4 -8.42 0.00489-12.6 0.00132-1.55 9.38e-4 -3.09-0.00126-4.64-0.00272-2.1 6.82e-4 -4.21 0.00568-6.31 3.77e-4 -1.18 7.54e-4 -2.36 0.00114-3.57 0.126-2.87 0.126-2.87 1.13-5.87z" fill="#6B727A"/>
<path transform="translate(595,1293)" d="m0 0 1 2c0.99-0.33 1.98-0.66 3-1 0.66 0.66 1.32 1.32 2 2 2.11-0.319 2.11-0.319 4-1v2c2.48 0.495 2.48 0.495 5 1v2h2c0.495 0.99 0.495 0.99 1 2 0.99 0.33 1.98 0.66 3 1v3h2c0.211 6.26 0.071 12-1.56 18-0.582 2.29-0.582 2.29-0.438 5.97 0.619 0.247 1.24 0.495 1.88 0.75 2.5 1.47 2.96 2.66 4.12 5.25-12.9 9.95-24.5 15.9-40.9 14.3-4.98-0.696-9.49-2.26-14.1-4.29-0.669-0.273-1.34-0.547-2.03-0.828-1.66-0.734-1.66-0.734-3.97-2.17-0.495-1.48-0.495-1.48-1-3-0.66-0.33-1.32-0.66-2-1-0.625-2.56-0.625-2.56-1-5 0.99-0.495 0.99-0.495 2-1-0.66-1.32-1.32-2.64-2-4h10c-0.33-3.3-0.66-6.6-1-10 3.96-1.48 3.96-1.48 8-3v3h3c-0.0206-1.07-0.0412-2.14-0.0625-3.25 0.0483-2.9 0.194-5.04 1.06-7.75h-3c-0.224-1.41-0.428-2.83-0.625-4.25-0.174-1.18-0.174-1.18-0.352-2.39-0.0266-2.68 0.611-4.09 1.98-6.36 0.557 0.712 0.557 0.712 1.12 1.44 2.57 2.14 4.57 2.3 7.88 2.56 2.77-0.369 2.77-0.369 5-1v-2c2.5-1.62 2.5-1.62 5-3z" fill="#6D747C"/>
<path transform="translate(829,341)" d="m0 0h1c0.33 10.2 0.66 20.5 1 31 2.93 0.0103 5.86 0.0206 8.88 0.0312 26.9 0.0952 53.9 0.195 80.8 0.3 3.54 0.0138 7.08 0.0275 10.6 0.0412 0.704 0.00273 1.41 0.00546 2.13 0.00827 11.4 0.044 22.7 0.0846 34.1 0.124 11.7 0.0406 23.4 0.0848 35.1 0.132 6.56 0.0265 13.1 0.0513 19.7 0.0722 6.18 0.0197 12.4 0.0439 18.5 0.0714 2.26 0.00928 4.52 0.017 6.78 0.0229 12.5 0.0339 24.9 0.283 37.4 1.2v1c-8.07 0.562-16.1 1.05-24.2 1.25-0.681 0.0166-1.36 0.0333-2.06 0.0504-2.76 0.0655-5.53 0.128-8.29 0.18-10.3 0.202-20.3 1.07-30.4 2.52 2.97 0.495 2.97 0.495 6 1v1c-8.72 0.51-17.4 0.968-26.2 1.22-14.9 0.292-14.9 0.292-29.7 1.84-8.72 1.31-17.5 0.953-26.3 0.85-9.35-0.0946-18.1 0.404-27.2 2.42-5.54 0.991-10.9 0.839-16.5 0.672-3.22-0.178-3.22-0.178-6.2 0.992h-6c-0.99 0.33-1.98 0.66-3 1-3.03-0.961-4.74-1.74-7-4-1.94-0.421-1.94-0.421-4.06-0.562-3.94-0.438-3.94-0.438-4.94-1.44-1.71-0.134-3.42-0.203-5.14-0.246-1.05-0.0329-2.11-0.0657-3.19-0.0996-2.22-0.0607-4.44-0.118-6.66-0.172-5.34-0.172-10-0.327-15-2.48v-2h5c-0.831-0.11-1.66-0.219-2.52-0.332-1.63-0.238-1.63-0.238-3.29-0.48-1.08-0.151-2.16-0.302-3.27-0.457-3.2-0.8-4.07-1.07-5.92-3.73-0.262-2.59-0.35-4.93-0.293-7.51 0.00424-0.728 0.00849-1.46 0.0129-2.21 0.0168-2.32 0.0544-4.65 0.0926-6.97 0.015-1.58 0.0287-3.15 0.041-4.73 0.0331-3.86 0.0848-7.72 0.146-11.6z" fill="#697078"/>
<path transform="translate(671,392)" d="m0 0v2c0.99-0.33 1.98-0.66 3-1 2.23 0.891 2.23 0.891 4.62 2.25 0.797 0.438 1.59 0.877 2.41 1.33 1.96 1.42 1.96 1.42 2.96 4.42 3.58 1 3.58 1 7 0l2 1c-0.103 1.26-0.206 2.52-0.312 3.81-0.0801 2.2-0.0801 2.2 0.312 4.19 0.804 0.474 1.61 0.949 2.44 1.44 2.56 1.56 2.56 1.56 3.08 3.63 0.151 1.59 0.265 3.18 0.34 4.78 0.061 2.34 0.061 2.34 1.14 5.16v5c-7.91 0.769-15.7 1.14-23.7 1.1-1.05-0.00141-2.1-0.00283-3.18-0.00429-3.3-0.00553-6.6-0.0181-9.9-0.0309-2.26-0.00502-4.52-0.00959-6.77-0.0137-5.49-0.0109-11-0.0276-16.5-0.0488v-2h11v-2c-1.65-0.33-3.3-0.66-5-1v-2h5v-2c-1.65-0.33-3.3-0.66-5-1v-2c-0.784 0.186-1.57 0.371-2.38 0.562-2.62 0.438-2.62 0.438-4.62-0.562-0.812-1.81-0.812-1.81-1-4 1.25-1.94 1.25-1.94 3-4 0.413-0.887 0.825-1.77 1.25-2.69 0.577-0.763 1.15-1.53 1.75-2.31 1.11-0.0619 2.23-0.124 3.38-0.188 1.79-0.402 1.79-0.402 3.62-0.812 1.33-2.21 1.33-2.21 2.38-4.88 2.06-4.77 2.06-4.77 4.72-6.45 4.3-1.46 8.35-2.02 12.9-1.67z" fill="#6D747C"/>
<path transform="translate(1023,836)" d="m0 0 6 3v2h2c-0.33-0.99-0.66-1.98-1-3 2.39 0.576 4.67 1.22 7 2 2.21-0.00568 4.42-0.0529 6.62-0.125 8.72-0.063 14.7 2.14 22.4 6.12 1.49 0.722 2.99 1.43 4.5 2.12 0.712 0.333 1.42 0.665 2.16 1.01 4.68 1.73 9.49 2 14.4 2.15 1.13 0.0374 2.26 0.0748 3.43 0.113 2.36 0.0704 4.72 0.141 7.09 0.211 1.13 0.0374 2.26 0.0748 3.42 0.113 1.54 0.0454 1.54 0.0454 3.11 0.0918 2.71 0.18 5.21 0.633 7.86 1.19 1.36 0.124 2.73 0.219 4.1 0.281 1.11 0.0561 1.11 0.0561 2.23 0.113 1.53 0.0707 3.07 0.141 4.6 0.211 3.23 0.164 5.98 0.367 9.06 1.39v2c1.32 0.66 2.64 1.32 4 2-2.39 1.29-4.78 2.56-7.19 3.81-0.654 0.356-1.31 0.713-1.98 1.08-11 5.66-22.4 6.64-34.6 6.54-1.32-0.00902-2.64-0.018-3.99-0.0273-21.1-0.374-37.3-6.51-53.3-20.4-0.703-0.559-1.41-1.12-2.13-1.7-0.638-0.513-1.28-1.03-1.93-1.55-0.548-0.438-1.1-0.877-1.66-1.33-1.56-1.73-1.75-3.18-2.28-5.42-1.98-1.28-1.98-1.28-4-2v-2z" fill="#6D747C"/>
<path transform="translate(455,841)" d="m0 0c2.27 0.309 4.54 0.622 6.81 0.938 1.26 0.174 2.53 0.348 3.83 0.527 3.36 0.535 3.36 0.535 6.36 1.54 0.33-0.99 0.66-1.98 1-3 6.36-0.615 12.5 2.11 18 5v2c8.01 1.69 15.6 3.24 23.8 2.98 11.4 0.07 23.1 1.63 34.2 4.02v2l4 1h-4v2h6c-2.6 3.15-5.53 4.17-9.31 5.56-1.66 0.621-1.66 0.621-3.36 1.25-1.1 0.391-2.19 0.781-3.32 1.18-0.887 0.346-1.77 0.692-2.69 1.05-3.91 1.12-7.61 1.31-11.6 1.36-0.797 0.0114-1.59 0.0228-2.42 0.0345-1.69 0.0188-3.37 0.0319-5.06 0.0397-2.52 0.0192-5.05 0.0812-7.57 0.145-21.3 0.277-39.4-8.8-54.5-23.5-0.704-0.701-1.41-1.4-2.13-2.12 1.32-0.33 2.64-0.66 4-1v-2c-0.66-0.33-1.32-0.66-2-1z" fill="#6D747C"/>
<path transform="translate(1219 1116)" d="m0 0c0.796 0.00322 1.59 0.00645 2.41 0.00977 0.817 0.00838 1.63 0.0168 2.47 0.0254 0.836 0.00451 1.67 0.00902 2.53 0.0137 2.05 0.0117 4.1 0.0297 6.15 0.0488 1 3 1 3 0 6h-3v-2c-0.99-0.495-0.99-0.495-2-1 0.165 0.578 0.33 1.15 0.5 1.75 0.5 2.25 0.5 2.25 0.5 6.25-2.58 2.54-4.59 3.37-8.17 3.59-1.32 0.0964-1.32 0.0964-2.66 0.195-1.57 0.107-1.57 0.107-3.17 0.215-2.01 0.181-4.03 0.362-6.04 0.55-2.99 0.277-5.98 0.542-8.96 0.807-1.55 0.138-3.09 0.276-4.64 0.416-2.26 0.204-4.52 0.405-6.78 0.606-0.687 0.0625-1.37 0.125-2.08 0.189-3.51 0.308-6.97 0.499-10.5 0.432 2.97-1.6 5.88-2.64 9.12-3.56 3.52-1 3.52-1 6.88-2.44-1.38 0.234-1.38 0.234-2.79 0.473-9.8 1.51-19.1 1.95-28.9-0.0195-4.68-0.649-9.3-0.468-14-0.391-7.59 0.0619-15.1-0.115-22.6-0.938-0.76-0.0786-1.52-0.157-2.3-0.238-1.79-0.217-3.56-0.541-5.32-0.887-0.495-0.99-0.495-0.99-1-2 3.46-0.495 3.46-0.495 7-1-2.99-1.5-6.15-1.33-9.44-1.5-7.16-0.366-7.16-0.366-10.6-1.5-2.66-0.153-5.29-0.257-7.95-0.316-1.16-0.0312-1.16-0.0312-2.34-0.063-2.47-0.0653-4.93-0.124-7.4-0.183-1.67-0.0432-3.35-0.0868-5.02-0.131-4.1-0.107-8.2-0.208-12.3-0.307v-1c20-0.864 40.1-1.09 60.1-1.06 1.2 0.00144 2.39 0.00288 3.62 0.00436 8.67 0.0123 17.3 0.0344 26 0.0581 8.77 0.0237 17.5 0.044 26.3 0.0559 3.48 0.00645 6.96 0.0189 10.4 0.0317 2.12 0.00363 4.23 0.00698 6.35 0.01 1.44 0.00775 1.44 0.00775 2.91 0.0157 5.66 4.51e-4 11.1-1.25 16.7-1.21z" fill="#697078"/>
<path transform="translate(720 830)" d="m0 0c1.46 0.00214 1.46 0.00214 2.95 0.00432 1.1-0.00308 2.2-0.00615 3.34-0.00932 1.2 0.00719 2.4 0.0144 3.63 0.0218 1.85 6.87e-4 1.85 6.87e-4 3.74 0.00139 3.29 0.0038 6.59 0.0168 9.88 0.0335 3.31 0.0133 6.61 0.0103 9.92 0.0101 2.55 0.00492 5.1 0.0108 7.65 0.0176 1.18 0.00111 2.36 0.00223 3.57 0.00337 7.38 0.0415 14.7 0.437 22 1.16v1c-4.06 0.342-8.12 0.672-12.2 1-1.13 0.0954-2.26 0.191-3.43 0.289-7.81 0.623-15.5 0.828-23.4 0.711v5h2v2c3.3 0.33 6.6 0.66 10 1v2h6v2c-0.99 0.33-1.98 0.66-3 1-0.495 1.49-0.495 1.49-1 3-2.56 1.19-2.56 1.19-5 2v-2c-2.64 0.66-5.28 1.32-8 2v-2c-1.98 0.33-3.96 0.66-6 1-0.66 3.96-1.32 7.92-2 12-2.64-0.99-5.28-1.98-8-3-0.33 0.66-0.66 1.32-1 2-1.32-0.66-2.64-1.32-4-2 0.66 3.96 1.32 7.92 2 12-4-1-4-1-5.6-3.55-5.27-11.9-8.75-23.3-8.4-36.4 2-2 2-2 4.32-2.25z" fill="#6C737B"/>
<path transform="translate(738,1189)" d="m0 0c0.99 0.495 0.99 0.495 2 1-0.454 0.598-0.908 1.2-1.38 1.81-1.26 1.69-2.45 3.43-3.62 5.19-0.99 0.33-1.98 0.66-3 1l-1 2h-2v2c-0.784 0.247-1.57 0.495-2.38 0.75-2.74 0.968-2.74 0.968-3.56 3.19-1.06 2.06-1.06 2.06-3.62 3.25-4.33 2.29-7.08 5.37-10.4 8.95-2.05 1.86-2.05 1.86-5.05 1.86v2c-2.31 0.66-4.62 1.32-7 2v2c-6.62 4-6.62 4-10 4-0.227 0.578-0.454 1.15-0.688 1.75-2.37 4.07-5.92 6.13-10.1 8.12-8.92 4.04-8.92 4.04-14.6 11.4-0.227 0.887-0.454 1.77-0.688 2.69-1.81 0.625-1.81 0.625-4 1-0.722 0.578-1.44 1.15-2.19 1.75-3.07 2.45-6.23 4.17-9.68 6.02-2.32 1.26-2.32 1.26-4.76 3.48-3.06 2.26-5.63 2.46-9.38 2.75l-2-6c16.9-12.5 34.2-24.3 51.5-36.1 8.3-5.66 16.6-11.4 24.8-17.1 0.833-0.581 1.67-1.16 2.52-1.76 3.82-2.67 7.62-5.37 11.4-8.16 0.957-0.706 0.957-0.706 1.93-1.43 1.17-0.865 2.32-1.74 3.47-2.62 3.33-2.46 5.31-3.08 9.4-2.84 2.31-1.9 2.31-1.9 4-4z" fill="#697078"/>
<path transform="translate(525,1180)" d="m0 0c16.9 16 27.5 41.7 38.4 62 1.69 3.13 3.4 6.25 5.12 9.37 0.559 1.01 1.12 2.03 1.69 3.07 1.07 1.94 2.14 3.88 3.22 5.81 0.474 0.862 0.949 1.72 1.44 2.61 0.42 0.758 0.84 1.52 1.27 2.3 0.895 1.87 0.895 1.87 0.895 3.87-2.77-1.13-4.26-2.26-6.38-4.44-2.73-2.67-5.21-3.93-8.62-5.56-2.75-2.24-4.23-4.95-6-8-0.619-0.866-1.24-1.73-1.88-2.62-3.41-5.41-6.12-11.2-8.07-17.3-3.33-9.64-9.28-20.6-16.8-27.6-5.79-6.27-4.47-15.5-4.25-23.4z" fill="#697078"/>
<path transform="translate(854,1141)" d="m0 0c5.51 4.75 7.06 9.95 7.94 16.9 0.356 5.68-0.573 9.47-3.94 14.1-2.25 2.5-2.25 2.5-4 4-0.66-0.33-1.32-0.66-2-1v-4c-0.66-0.66-1.32-1.32-2-2 0.33-0.99 0.66-1.98 1-3-0.724 0.0464-1.45 0.0928-2.2 0.141-4.51 0.169-8.17 0.0648-12.5-1.33-3.35-4.08-2.73-7.59-2.43-12.7 0.0984-2.69-0.0628-4.57-0.887-7.09 2.48 0.495 2.48 0.495 5 1v2c2.31 0.33 4.62 0.66 7 1v-3c0.557-0.268 1.11-0.536 1.69-0.812 2.51-1.29 4.91-2.72 7.31-4.19z" fill="#6D747C"/>
<path transform="translate(1141,733)" d="m0 0 4 2v2c3.16 1.05 5.87 1.31 9.19 1.56 1.63 0.126 1.63 0.126 3.29 0.254 1.25 0.0909 1.25 0.0909 2.52 0.184 0.027 1.46 0.0464 2.92 0.0625 4.38 0.0116 0.812 0.0232 1.62 0.0352 2.46-0.0977 2.16-0.0977 2.16-1.1 4.16h2v5c1.32-0.33 2.64-0.66 4-1-0.186 0.763-0.371 1.53-0.562 2.31-0.666 2.78-0.666 2.78 0.562 5.69-0.938 3.19-0.938 3.19-2 6-3.63-0.33-7.26-0.66-11-1v-3h3v-2h-3v-2c0.66-0.33 1.32-0.66 2-1-0.348-1.98-0.348-1.98-1-4-0.66-0.33-1.32-0.66-2-1v-5h-3c-0.0142-0.592-0.0284-1.18-0.043-1.79-0.271-4.49-0.453-6.61-3.46-10.1-0.825-0.681-1.65-1.36-2.5-2.06-0.33-0.66-0.66-1.32-1-2z" fill="#697078"/>
<path transform="translate(731 832)" d="m0 0c1.67-0.0213 1.67-0.0213 3.37-0.043 3.16 0.228 5.35 0.886 8.19 2.23 0.0425 2 0.0408 4 0 6-1.74 1.74-3.96 1.13-6.27 1.14-0.694-0.00387-1.39-0.00773-2.1-0.0117-0.686 0.00387-1.37 0.00773-2.08 0.0117-3.12-0.00607-5.57-0.143-8.55-1.14v2h-2v-2h-2v-2h2c-0.33-1.65-0.66-3.3-1-5 3.5-1.07 6.78-1.17 10.4-1.19z" fill="#6D747C"/>
<path transform="translate(1229,1162)" d="m0 0c-3.64 1.98-6.89 2.46-11 3-0.33 0.33-0.66 0.66-1 1-2.98 0.376-5.95 0.707-8.94 1-1.66 0.163-3.31 0.33-4.96 0.5-0.737 0.0722-1.47 0.144-2.23 0.219-1.95 0.196-1.95 0.196-3.86 1.28-1.49 0.284-2.99 0.504-4.5 0.688-0.794 0.107-1.59 0.214-2.41 0.324-2.81-0.0106-5.01-0.362-7.73-0.957-5.54-1.19-11-1.46-16.6-1.62-11.5-0.364-11.5-0.364-16.8-1.44 0.33-0.66 0.66-1.32 1-2 4.96 0.0943 9.92 0.201 14.9 0.317 1.68 0.038 3.37 0.0729 5.05 0.104 2.44 0.0462 4.87 0.104 7.31 0.164 1.11 0.0173 1.11 0.0173 2.25 0.035 5.36 0.148 10.3 1.06 15.5 2.38 0.33-0.66 0.66-1.32 1-2 1.75-0.344 1.75-0.344 4-0.5 3.17-0.273 6.06-0.729 9.12-1.56 6.49-1.56 13.2-1.09 19.9-0.938z" fill="#6E757D"/>
<path transform="translate(294,498)" d="m0 0c2 2 2 2 2.05 4.07-0.098 0.824-0.196 1.65-0.297 2.5-0.131 1.21-0.131 1.21-0.266 2.44-0.398 2.46-0.926 4.78-1.53 7.2-1.15 5.04-1.15 9.84-1.02 15 0.109 5.41 0.187 10.5-0.938 15.8h-3c-0.245-4.05-0.459-8.1-0.647-12.2-0.0676-1.37-0.143-2.75-0.228-4.12-0.563-9.28-0.176-17.2 3.87-25.7 0.66-0.66 1.32-1.32 2-2v-3z" fill="#6D747C"/>
<path transform="translate(726 372)" d="m0 0c1.2-0.00451 2.4-0.00902 3.63-0.0137 1.69 0.0029 1.69 0.0029 3.41 0.00586 0.994 0.00113 1.99 0.00226 3.01 0.00342 2.68 0.126 5.14 0.528 7.76 1.13-3.33 2.22-4.2 2-8 2-0.99 0.66-1.98 1.32-3 2-2.27 0.227-2.27 0.227-4.89 0.195-0.938-0.00645-1.88-0.0129-2.84-0.0195-1.46-0.0251-1.46-0.0251-2.96-0.0508-0.988-0.00902-1.98-0.018-2.99-0.0273-2.44-0.0236-4.88-0.0565-7.32-0.0977l2-1v-2c-1.07 0.251-1.07 0.251-2.17 0.508-2.84 0.493-5.26 0.522-8.13 0.371-0.976-0.0483-1.95-0.0967-2.96-0.146-1.51-0.0841-1.51-0.0841-3.05-0.17-1.03-0.0522-2.05-0.104-3.11-0.158-2.53-0.129-5.05-0.264-7.58-0.404v-1c13.1-0.682 26.1-1.1 39.2-1.12z" fill="#697078"/>
<path transform="translate(879,244)" d="m0 0h2c0.471 5.79-0.764 9.21-4 13.9-0.402 0.603-0.804 1.21-1.22 1.83-3.5 5.14-7.44 9.83-11.8 14.3l-2-1v-3h2c0.33-0.99 0.66-1.98 1-3 0.33 0.33 0.66 0.66 1 1 0.0825-0.949 0.165-1.9 0.25-2.88 0.247-1.03 0.495-2.06 0.75-3.12 1.33-0.667 2.67-1.33 4-2 0.76-2.89 0.76-2.89 1-6 0.317-1.34 0.643-2.67 1-4h2v-4h4v-2z" fill="#6B727A"/>
<path transform="translate(886,848)" d="m0 0c-0.153 8.88-3.85 15.4-8 23-3.01-1.5-2.97-3.92-4-7-0.66-0.33-1.32-0.66-2-1 0.33-0.99 0.66-1.98 1-3 0.99-0.33 1.98-0.66 3-1 0.66 0.33 1.32 0.66 2 1 0.254-0.782 0.508-1.56 0.77-2.37 0.344-1.01 0.688-2.02 1.04-3.07 0.336-1.01 0.673-2.02 1.02-3.06 0.385-0.826 0.771-1.65 1.17-2.5 3-1 3-1 4-1z" fill="#6D747C"/>
<path transform="translate(1298,1119)" d="m0 0h6c0.33 1.65 0.66 3.3 1 5-1.64-0.0928-1.64-0.0928-3.31-0.188-3.57-0.201-3.57-0.201-5.25 1.56-0.474 0.536-0.949 1.07-1.44 1.62-5.71 2.78-11.8 2.18-18 2v-4c1.26 0.0348 1.26 0.0348 2.55 0.0703 1.1 0.018 2.19 0.0361 3.32 0.0547 1.09 0.0232 2.18 0.0464 3.3 0.0703 2.96 0.105 2.96 0.105 4.82-2.2 1.01-0.33 2.02-0.66 3.06-1 3.06-0.658 3.06-0.658 3.94-3z" fill="#6E757D"/>
<path transform="translate(455,1126)" d="m0 0c13.5 3.43 13.5 3.43 18 6 0.938 2.69 0.938 2.69 1 5-0.99 0.495-0.99 0.495-2 1-0.33-0.99-0.66-1.98-1-3-0.66-0.33-1.32-0.66-2-1v3c-3.63-0.33-7.26-0.66-11-1 0.33-0.99 0.66-1.98 1-3 0.66-0.33 1.32-0.66 2-1-0.804-0.247-1.61-0.495-2.44-0.75-0.846-0.412-1.69-0.825-2.56-1.25-0.66-2.08-0.66-2.08-1-4z" fill="#6D747C"/>
<path transform="translate(702,378)" d="m0 0h34c0.495 1.49 0.495 1.49 1 3-3.9 1.26-7.82 1.18-11.9 1.19-1.04 0.0184-1.04 0.0184-2.11 0.0371-4.43 0.0125-7.88-0.705-12-2.22-1.62-0.262-3.24-0.477-4.88-0.625-0.781-0.0748-1.56-0.15-2.37-0.227-0.58-0.049-1.16-0.098-1.76-0.148v-1z" fill="#697078"/>
<path transform="translate(1148,427)" d="m0 0h14v2h7v-2h7v2c0.99 0.33 1.98 0.66 3 1h-31v-3z" fill="#6E757D"/>
<path transform="translate(879,244)" d="m0 0h2c0.499 6.12-0.751 9.02-4 14-0.99-0.33-1.98-0.66-3-1h-2c0.33-2.31 0.66-4.62 1-7h2v-4h4v-2z" fill="#6D747C"/>
<path transform="translate(1310,391)" d="m0 0c5.97 3.12 12 6.38 17 11v2c-0.804-0.186-1.61-0.371-2.44-0.562-0.846-0.144-1.69-0.289-2.56-0.438-0.33 0.33-0.66 0.66-1 1-4.47-2.24-6.38-4.8-9-9-1.62-1.79-1.62-1.79-3-3 0.33-0.33 0.66-0.66 1-1z" fill="#6D747C"/>
<path transform="translate(1216,1166)" d="m0 0c-5.48 5.04-13.6 4.25-20.6 4.62-0.833 0.0516-1.67 0.103-2.52 0.156-4.13 0.224-7.81 0.323-11.9-0.781v-1c1.06-0.049 2.12-0.098 3.22-0.148 8.64-0.282 8.64-0.282 17.1-1.91 4.93-1.25 9.63-1.1 14.7-0.938z" fill="#6C737B"/>
<path transform="translate(1009,763)" d="m0 0h3c0.0971 6.11-0.23 11.9-1 18-2-0.938-2-0.938-4-3-0.89-5.28-0.021-10.1 2-15z" fill="#6D747C"/>
<path transform="translate(884,235)" d="m0 0c0.99 0.66 1.98 1.32 3 2-1.65 3.96-3.3 7.92-5 12-0.66-0.99-1.32-1.98-2-3 0.33-0.66 0.66-1.32 1-2h-2v2h-2c2.35-7.37 2.35-7.37 4-10 0.99-0.33 1.98-0.66 3-1z" fill="#6B727A"/>
<path transform="translate(402,372)" d="m0 0c0.33 0.99 0.66 1.98 1 3-2.05 0.228-4.1 0.456-6.15 0.684-1.86 0.135-1.86 0.135-2.85 1.32-2.33 0.0409-4.67 0.0424-7 0 1-3 1-3 3-4.19 4.04-1.09 7.84-0.976 12-0.812z" fill="#6D747C"/>
<path transform="translate(291,972)" d="m0 0h1c0.33 8.58 0.66 17.2 1 26-0.99-0.33-1.98-0.66-3-1-0.185-16.7-0.185-16.7 1-25z" fill="#6A7179"/>
<path transform="translate(244,868)" d="m0 0v11h-4v-10c3-1 3-1 4-1z" fill="#697078"/>
<path transform="translate(242,826)" d="m0 0h1v8c0.66 0.33 1.32 0.66 2 1h-2v4h2v10c-4.44-4.44-3.81-13.9-4-20 0.33-0.99 0.66-1.98 1-3z" fill="#6B727A"/>
<path transform="translate(347,380)" d="m0 0c-2.27 2.27-3.84 2.94-7.04 3.1-0.708-0.0116-1.42-0.0232-2.14-0.0352-1.89-0.0309-1.89-0.0309-3.81-0.0625 0.33-0.99 0.66-1.98 1-3 4.66-2.28 7.29-2.02 12 0z" fill="#6E757D"/>
<path transform="translate(744,1186)" d="m0 0v3c-1.64 0.402-1.64 0.402-3.31 0.812-3.47 1.12-4.38 1.65-6.69 4.19h-3c1.31-3.94 3.96-5.75 7.15-8.14 2.35-1.08 3.47-0.711 5.85 0.145z" fill="#6A7179"/>
<path transform="translate(1151,1131)" d="m0 0c2.52-0.0545 5.04-0.0939 7.56-0.125 0.704-0.0168 1.41-0.0335 2.13-0.0508 4.82-0.0444 8.73 0.648 13.3 2.18v1c-7.9 0.28-15.2-0.485-23-2v-1z" fill="#697078"/>
<path transform="translate(1375,614)" d="m0 0h2c0.0538 2.46 0.0936 4.92 0.125 7.38 0.0168 0.699 0.0335 1.4 0.0508 2.12 0.0177 1.84-0.0727 3.67-0.176 5.51-0.66 0.66-1.32 1.32-2 2v-7h-3v-2h3v-8z" fill="#697078"/>
<path transform="translate(587,1287)" d="m0 0c0.701 0.186 1.4 0.371 2.12 0.562 3.21 0.489 5.71 0.0998 8.88-0.562-1 3-1 3-2.75 4.25-2.78 0.926-4.47 0.523-7.25-0.25-0.33-1.32-0.66-2.64-1-4z" fill="#6D747C"/>
<path transform="translate(252,454)" d="m0 0h2c-1.64 5.23-3.39 10.2-6 15h-1c0.481-5.77 2.18-9.96 5-15z" fill="#6D747C"/>
<path transform="translate(887,838)" d="m0 0h2c-0.33 2.97-0.66 5.94-1 9h-4c0.498-3.73 0.875-5.81 3-9z" fill="#6D747C"/>
<path transform="translate(636,425)" d="m0 0v5c-5.54-0.615-5.54-0.615-7.88-2.56-0.371-0.474-0.742-0.949-1.12-1.44 7.88-1 7.88-1 9-1z" fill="#6E757D"/>
<path transform="translate(880,392)" d="m0 0h17c-0.33 0.66-0.66 1.32-1 2-1.99-0.0326-3.97-0.0651-5.96-0.0977-2.25 0.015-2.25 0.015-5.04 1.1-2.69-0.938-2.69-0.938-5-2v-1z" fill="#697078"/>
<path transform="translate(359,374)" d="m0 0h8v2c1.32 0.33 2.64 0.66 4 1-1.62 0.027-3.25 0.0464-4.88 0.0625-1.36 0.0174-1.36 0.0174-2.74 0.0352-2.38-0.0977-2.38-0.0977-4.38-1.1v-2z" fill="#6C737B"/>
</svg>
